<?xml version="1.0" encoding="utf-8"?>
<!DOCTYPE svg PUBLIC "-//W3C//DTD SVG 20010904//EN" "http://www.w3.org/TR/2001/REC-SVG-20010904/DTD/svg10.dtd">
<svg version="1.0" xmlns="http://www.w3.org/2000/svg" width="514pt" height="514pt" viewBox="0 0 514 514" style="" preserveAspectRatio="xMidYMid meet">
<g fill="#000000FF" stroke="#000000FF">
<path d="M 50.557 150.223 C 49.184 152.183 49.000 160.690 49.000 222.259 L 49.000 292.073 44.000 312.000 C 38.700 333.122 38.292 335.892 40.200 337.800 C 41.119 338.719 67.027 339.000 150.721 339.000 L 260.043 339.000 261.071 336.743 C 261.880 334.969 260.914 329.706 256.550 312.111 L 251.000 289.735 251.000 219.903 C 251.000 151.885 250.950 150.043 249.066 149.035 C 247.770 148.342 214.926 148.000 149.622 148.000 L 52.113 148.000 50.557 150.223 M 241.000 222.000 L 241.000 286.000 150.000 286.000 L 59.000 286.000 59.000 222.000 L 59.000 158.000 150.000 158.000 L 241.000 158.000 241.000 222.000 M 246.304 312.250 C 248.360 320.638 250.033 327.838 250.021 328.250 C 250.010 328.663 205.054 329.000 150.119 329.000 L 50.239 329.000 54.244 313.000 L 58.249 297.000 150.407 297.000 L 242.565 297.000 246.304 312.250 "/></g>
<g fill="#000000FF" stroke="#000000FF">
<path d="M 72.750 165.080 C 71.116 166.032 71.001 169.797 71.015 221.800 C 71.024 255.146 71.411 278.102 71.979 279.000 C 72.805 280.308 82.677 280.534 149.111 280.768 C 216.359 281.006 225.571 280.856 227.647 279.495 L 230.000 277.954 230.000 222.548 C 230.000 173.513 229.819 166.962 228.429 165.571 C 227.027 164.170 218.625 164.003 150.679 164.030 C 100.799 164.050 73.896 164.413 72.750 165.080 M 220.000 222.500 L 220.000 271.000 150.500 271.000 L 81.000 271.000 81.000 222.500 L 81.000 174.000 150.500 174.000 L 220.000 174.000 220.000 222.500 "/></g>
<g fill="#000000FF" stroke="#000000FF">
<path d="M 317.571 413.571 C 316.232 414.910 316.000 418.604 316.000 438.548 L 316.000 461.954 318.353 463.495 C 320.429 464.856 329.641 465.006 396.889 464.768 C 463.323 464.534 473.195 464.308 474.021 463.000 C 474.549 462.166 474.976 450.977 474.985 437.785 C 474.999 415.354 474.895 414.014 473.066 413.035 C 471.781 412.348 445.610 412.000 395.137 412.000 C 327.385 412.000 318.972 412.170 317.571 413.571 M 465.000 438.500 L 465.000 455.000 395.500 455.000 L 326.000 455.000 326.000 438.500 L 326.000 422.000 395.500 422.000 L 465.000 422.000 465.000 438.500 "/></g>
<g fill="#000000FF" stroke="#000000FF">
<path d="M 317.571 349.571 C 316.232 350.910 316.000 354.604 316.000 374.548 L 316.000 397.954 318.353 399.495 C 320.429 400.856 329.641 401.006 396.889 400.768 C 463.323 400.534 473.195 400.308 474.021 399.000 C 474.549 398.166 474.976 386.977 474.985 373.785 C 474.999 351.354 474.895 350.014 473.066 349.035 C 471.781 348.348 445.610 348.000 395.137 348.000 C 327.385 348.000 318.972 348.170 317.571 349.571 M 465.000 374.500 L 465.000 391.000 395.500 391.000 L 326.000 391.000 326.000 374.500 L 326.000 358.000 395.500 358.000 L 465.000 358.000 465.000 374.500 "/></g>
<g fill="#000000FF" stroke="#000000FF">
<path d="M 317.571 285.571 C 316.232 286.910 316.000 290.604 316.000 310.548 L 316.000 333.954 318.353 335.495 C 320.429 336.856 329.641 337.006 396.889 336.768 C 463.323 336.534 473.195 336.308 474.021 335.000 C 474.549 334.166 474.976 322.977 474.985 309.785 C 474.999 287.354 474.895 286.014 473.066 285.035 C 471.781 284.348 445.610 284.000 395.137 284.000 C 327.385 284.000 318.972 284.170 317.571 285.571 M 465.000 310.500 L 465.000 327.000 395.500 327.000 L 326.000 327.000 326.000 310.500 L 326.000 294.000 395.500 294.000 L 465.000 294.000 465.000 310.500 "/></g>
<g fill="#000000FF" stroke="#000000FF">
<path d="M 377.073 47.422 C 370.616 50.207 369.000 52.139 369.000 57.069 C 369.000 61.645 367.244 63.199 360.605 64.500 C 355.715 65.458 355.387 65.732 352.808 71.000 C 349.417 77.929 349.345 81.275 352.500 85.411 C 353.875 87.214 355.000 89.729 355.000 91.000 C 355.000 92.271 353.875 94.786 352.500 96.589 C 349.345 100.725 349.417 104.071 352.808 110.999 C 355.388 116.270 355.712 116.540 360.619 117.499 C 367.285 118.802 369.000 120.340 369.000 125.012 C 369.000 129.820 371.104 132.152 377.883 134.854 C 384.795 137.609 385.706 137.545 390.428 133.972 C 392.589 132.337 394.884 131.000 395.528 131.000 C 396.173 131.000 398.564 132.350 400.841 134.000 C 405.762 137.565 406.374 137.610 413.213 134.921 C 420.300 132.134 421.660 130.711 422.252 125.459 C 422.915 119.578 424.150 118.305 429.970 117.504 C 432.649 117.136 435.473 116.084 436.248 115.167 C 437.813 113.314 442.016 103.365 441.972 101.617 C 441.957 101.002 440.607 98.732 438.972 96.572 C 435.272 91.681 435.285 89.431 439.041 85.038 C 442.578 80.899 442.590 80.730 439.828 73.883 C 436.855 66.516 435.501 65.194 430.135 64.418 C 424.290 63.573 423.193 62.676 422.469 58.150 C 421.198 50.209 421.288 50.328 414.498 47.610 C 410.913 46.174 407.305 45.000 406.481 45.000 C 405.657 45.000 403.119 46.350 400.841 48.000 C 398.564 49.650 396.154 51.000 395.487 51.000 C 394.821 51.000 392.576 49.650 390.500 48.000 C 385.996 44.421 384.207 44.344 377.073 47.422 M 388.606 58.595 C 394.686 61.570 400.069 61.307 404.505 57.817 C 407.939 55.116 411.753 56.038 412.566 59.765 C 414.370 68.034 418.490 72.575 425.155 73.641 C 430.574 74.507 431.959 77.784 428.744 82.133 C 425.586 86.404 425.593 95.228 428.758 99.665 C 431.671 103.750 430.507 108.000 426.475 108.000 C 420.425 108.000 414.702 113.327 412.850 120.683 C 411.508 126.012 408.457 127.291 404.505 124.183 C 400.031 120.663 394.691 120.427 388.463 123.474 C 381.656 126.805 379.458 126.263 378.624 121.049 C 377.586 114.561 370.591 108.000 364.710 108.000 C 360.687 108.000 359.744 104.167 362.604 99.442 C 364.181 96.836 364.990 93.975 364.990 91.000 C 364.990 88.025 364.181 85.164 362.604 82.558 C 359.744 77.833 360.687 74.000 364.710 74.000 C 370.474 74.000 377.431 67.601 378.604 61.221 C 379.704 55.242 381.037 54.892 388.606 58.595 "/></g>
<g fill="#000000FF" stroke="#000000FF">
<path d="M 76.942 359.889 C 62.284 364.677 51.413 381.189 49.545 401.500 C 48.371 414.270 50.711 423.063 60.545 442.844 C 69.053 459.955 69.231 460.214 73.811 462.241 C 80.087 465.017 89.913 465.017 96.189 462.241 C 100.774 460.212 100.940 459.969 109.581 442.594 L 118.330 425.000 122.210 425.000 C 127.240 425.000 131.000 421.494 131.000 416.804 C 131.000 414.645 127.512 406.501 120.831 393.064 C 109.973 371.222 106.300 366.244 97.845 361.911 C 93.134 359.496 81.568 358.377 76.942 359.889 M 95.839 372.388 C 100.823 375.842 104.330 380.839 107.958 389.656 C 109.507 393.420 112.847 400.100 115.380 404.500 C 117.913 408.900 119.988 412.983 119.993 413.574 C 119.997 414.164 117.863 415.289 115.250 416.074 C 111.487 417.204 110.188 418.185 109.000 420.796 C 108.175 422.609 104.350 430.484 100.500 438.296 C 93.538 452.422 93.476 452.508 89.061 453.904 C 85.250 455.109 84.047 455.109 80.561 453.904 C 76.717 452.575 76.161 451.831 70.168 440.000 C 62.582 425.024 60.465 419.325 59.557 411.444 C 57.650 394.899 66.073 375.503 77.391 370.377 C 82.360 368.126 91.056 369.074 95.839 372.388 "/></g>
<g fill="#000000FF" stroke="#000000FF">
<path d="M 392.571 140.571 C 391.248 141.895 391.000 145.288 391.000 162.071 L 391.000 182.000 328.200 182.000 C 280.689 182.000 265.108 182.292 264.200 183.200 C 262.299 185.101 262.742 189.792 264.934 190.965 C 266.211 191.648 289.102 192.000 332.279 192.000 C 394.378 192.000 397.774 191.907 399.345 190.171 C 400.783 188.583 401.000 185.364 401.000 165.671 C 401.000 144.333 400.882 142.882 399.000 141.000 C 396.592 138.592 394.678 138.465 392.571 140.571 "/></g>
<g fill="#000000FF" stroke="#000000FF">
<path d="M 330.094 224.750 C 284.554 224.937 265.294 225.341 264.344 226.130 C 262.282 227.841 262.746 231.709 265.223 233.443 C 267.176 234.811 274.928 235.000 329.223 235.000 L 391.000 235.000 391.000 254.800 C 391.000 275.705 391.271 277.000 395.643 277.000 C 400.470 277.000 401.000 274.356 401.000 250.277 C 401.000 229.333 400.880 227.880 399.000 226.000 C 397.900 224.900 396.438 224.109 395.750 224.243 C 395.063 224.376 365.517 224.604 330.094 224.750 "/></g>
<g fill="#000000FF" stroke="#000000FF">
<path d="M 386.363 72.457 C 379.164 76.114 375.698 81.379 375.185 89.438 C 374.716 96.808 376.837 101.894 382.428 106.803 C 395.500 118.280 416.333 108.597 416.333 91.044 C 416.333 75.268 400.347 65.353 386.363 72.457 M 401.696 81.956 C 406.286 84.755 407.857 90.391 405.458 95.447 C 400.454 105.992 385.000 102.499 385.000 90.823 C 385.000 87.581 385.660 86.140 388.400 83.400 C 392.408 79.392 396.723 78.924 401.696 81.956 "/></g>
<g fill="#000000FF" stroke="#000000FF">
<path d="M 189.035 352.934 C 188.407 354.107 188.000 363.947 188.000 377.934 L 188.000 401.000 168.500 401.000 C 150.171 401.000 148.877 401.123 146.949 403.051 C 145.084 404.916 144.972 408.102 146.705 410.000 C 147.667 411.054 193.392 411.496 195.442 410.471 C 197.434 409.475 197.509 408.565 197.766 382.185 C 197.939 364.530 197.662 354.237 196.981 352.964 C 195.569 350.327 190.441 350.307 189.035 352.934 "/></g>
<g fill="#000000FF" stroke="#000000FF">
<path d="M 94.223 186.557 C 92.001 188.113 92.000 188.129 92.000 221.622 C 92.000 242.809 92.381 255.843 93.035 257.066 C 93.697 258.302 95.127 259.000 97.000 259.000 C 98.873 259.000 100.303 258.302 100.965 257.066 C 101.619 255.843 102.000 242.809 102.000 221.622 C 102.000 188.129 101.999 188.113 99.777 186.557 C 98.555 185.701 97.305 185.000 97.000 185.000 C 96.695 185.000 95.445 185.701 94.223 186.557 "/></g>
<g fill="#000000FF" stroke="#000000FF">
<path d="M 173.000 118.000 L 173.000 133.000 180.599 133.000 C 189.782 133.000 194.208 131.188 196.423 126.522 C 198.482 122.181 198.436 113.720 196.328 109.278 C 194.133 104.652 189.975 103.000 180.532 103.000 L 173.000 103.000 173.000 118.000 M 190.260 109.750 C 192.527 112.276 193.332 118.053 192.071 122.738 C 190.840 127.309 189.703 128.000 183.418 128.000 L 179.000 128.000 179.000 118.000 L 179.000 108.000 183.845 108.000 C 187.194 108.000 189.175 108.540 190.260 109.750 "/></g>
<g fill="#000000FF" stroke="#000000FF">
<path d="M 136.750 197.080 C 135.146 198.014 135.000 200.547 135.000 227.350 C 135.000 258.028 135.139 259.017 139.450 258.985 C 144.493 258.947 144.480 259.020 144.795 228.931 C 145.049 204.716 144.871 200.452 143.522 198.393 C 141.856 195.850 139.609 195.415 136.750 197.080 "/></g>
<g fill="#000000FF" stroke="#000000FF">
<path d="M 115.000 207.979 C 113.734 208.779 113.500 212.690 113.500 233.000 C 113.500 253.310 113.734 257.221 115.000 258.021 C 117.084 259.338 120.368 259.232 121.800 257.800 C 123.504 256.096 123.504 209.904 121.800 208.200 C 120.368 206.768 117.084 206.662 115.000 207.979 "/></g>
<g fill="#000000FF" stroke="#000000FF">
<path d="M 146.172 116.250 C 143.357 123.538 140.768 130.288 140.419 131.250 C 139.907 132.665 140.352 133.000 142.748 133.000 C 145.233 133.000 145.860 132.476 146.639 129.750 C 147.554 126.548 147.665 126.496 154.192 126.206 L 160.816 125.913 161.986 129.456 C 162.983 132.477 163.602 133.000 166.185 133.000 C 168.648 133.000 169.094 132.673 168.571 131.250 C 168.218 130.288 165.582 123.541 162.714 116.258 C 157.588 103.239 157.448 103.016 154.396 103.008 C 151.335 103.000 151.218 103.188 146.172 116.250 M 156.816 115.750 L 158.808 121.000 154.337 121.000 C 150.208 121.000 149.918 120.834 150.552 118.837 C 151.798 114.909 154.111 109.778 154.470 110.142 C 154.665 110.339 155.720 112.863 156.816 115.750 "/></g>
<g fill="#000000FF" stroke="#000000FF">
<path d="M 212.108 105.187 C 211.618 106.459 208.961 113.263 206.203 120.306 L 201.189 133.113 204.313 132.806 C 206.873 132.555 207.604 131.913 208.363 129.250 L 209.289 126.000 216.000 126.000 L 222.711 126.000 223.643 129.250 C 224.437 132.019 225.034 132.500 227.681 132.500 L 230.788 132.500 225.007 118.000 C 219.408 103.955 219.129 103.490 216.112 103.187 C 213.627 102.936 212.819 103.340 212.108 105.187 M 217.913 114.104 C 218.589 116.361 219.384 118.836 219.678 119.604 C 220.083 120.659 219.211 121.000 216.107 121.000 C 213.848 121.000 211.998 120.663 211.995 120.250 C 211.985 118.707 215.420 110.000 216.039 110.000 C 216.394 110.000 217.237 111.847 217.913 114.104 "/></g>
<g fill="#000000FF" stroke="#000000FF">
<path d="M 90.024 103.024 C 83.868 104.469 81.045 110.832 84.521 115.426 C 85.322 116.485 89.020 118.335 92.739 119.537 C 98.265 121.323 99.563 122.148 99.845 124.055 C 100.639 129.423 92.443 130.871 88.842 126.000 C 85.257 121.151 80.825 122.326 83.182 127.500 C 84.826 131.109 88.900 133.000 95.027 133.000 C 99.360 133.000 100.606 132.547 103.077 130.077 C 109.026 124.128 105.938 117.577 95.795 114.629 C 89.296 112.739 87.115 110.772 89.000 108.500 C 90.861 106.257 96.717 106.575 98.232 109.000 C 99.760 111.446 105.000 111.796 105.000 109.452 C 105.000 107.403 100.179 103.000 97.936 103.000 C 96.961 103.000 95.564 102.822 94.832 102.604 C 94.099 102.387 91.936 102.576 90.024 103.024 "/></g>
<g fill="#000000FF" stroke="#000000FF">
<path d="M 116.615 105.088 C 112.724 108.149 111.000 112.206 111.000 118.302 C 111.000 127.260 116.157 132.954 124.300 132.985 C 130.840 133.011 137.089 128.279 135.608 124.422 C 134.747 122.176 132.405 122.749 129.154 126.000 C 127.504 127.650 125.319 129.000 124.299 129.000 C 116.705 129.000 113.414 115.495 119.521 109.388 C 122.651 106.258 126.478 106.334 129.491 109.585 C 131.204 111.433 132.474 111.984 133.944 111.518 C 136.844 110.597 136.500 108.598 132.923 105.589 C 128.863 102.172 120.643 101.920 116.615 105.088 "/></g>
<g fill="#00000055" stroke="#00000055">
<path d="M 150.250 174.747 L 219.000 175.014 219.245 222.507 L 219.490 270.000 219.495 222.250 L 219.500 174.500 150.500 174.490 L 81.500 174.479 150.250 174.747 "/></g>
<g fill="#00000055" stroke="#00000055">
<path d="M 326.441 423.294 C 326.168 424.006 326.082 431.318 326.251 439.544 L 326.558 454.500 326.779 438.757 L 327.000 423.014 396.250 422.750 L 465.500 422.486 396.219 422.243 C 340.287 422.047 326.842 422.249 326.441 423.294 "/></g>
<g fill="#00000055" stroke="#00000055">
<path d="M 326.441 359.294 C 326.168 360.006 326.082 367.318 326.251 375.544 L 326.558 390.500 326.779 374.757 L 327.000 359.014 396.250 358.750 L 465.500 358.486 396.219 358.243 C 340.287 358.047 326.842 358.249 326.441 359.294 "/></g>
<g fill="#00000055" stroke="#00000055">
<path d="M 326.441 295.294 C 326.168 296.006 326.082 303.318 326.251 311.544 L 326.558 326.500 326.779 310.757 L 327.000 295.014 396.250 294.750 L 465.500 294.486 396.219 294.243 C 340.287 294.047 326.842 294.249 326.441 295.294 "/></g>
<g fill="#000000FF" stroke="#000000FF">
<path d="M 93.035 392.934 C 91.401 395.988 91.806 397.826 94.500 399.592 C 96.816 401.109 97.184 401.109 99.500 399.592 C 103.753 396.806 102.063 391.000 97.000 391.000 C 95.127 391.000 93.697 391.698 93.035 392.934 "/></g>
<g fill="#00000055" stroke="#00000055">
<path d="M 209.728 126.605 C 209.395 126.938 212.218 127.211 216.000 127.211 C 219.782 127.211 222.605 126.938 222.272 126.605 C 221.939 126.272 219.117 126.000 216.000 126.000 C 212.883 126.000 210.061 126.272 209.728 126.605 "/></g>
<g fill="#00000055" stroke="#00000055">
<path d="M 150.618 102.809 C 150.343 103.255 152.004 103.311 154.309 102.935 L 158.500 102.250 154.809 102.125 C 152.779 102.056 150.893 102.364 150.618 102.809 "/></g>
</svg>
