<?xml version="1.0" encoding="utf-8"?>
<!DOCTYPE svg PUBLIC "-//W3C//DTD SVG 20010904//EN" "http://www.w3.org/TR/2001/REC-SVG-20010904/DTD/svg10.dtd">
<svg version="1.0" xmlns="http://www.w3.org/2000/svg" width="402pt" height="402pt" viewBox="0 0 402 402" style="" preserveAspectRatio="xMidYMid meet">
<g fill="#1B2A55FF" stroke="#1B2A55FF">
<path d="M 113.757 15.017 C 107.097 16.162 96.566 19.747 89.500 23.277 C 69.581 33.226 54.504 49.325 45.744 70.000 C 38.424 87.275 38.682 83.448 38.246 181.500 C 37.979 241.605 38.208 272.931 38.967 280.323 C 41.395 303.963 50.657 322.933 67.515 338.797 C 80.292 350.819 95.127 358.531 112.290 362.073 C 120.939 363.858 126.983 363.974 211.500 363.981 C 306.904 363.989 312.881 363.738 326.004 359.186 C 356.301 348.677 379.240 323.245 386.607 292.000 C 388.212 285.189 388.409 276.281 388.748 195.000 C 389.009 132.537 388.780 102.516 387.989 95.623 C 383.725 58.441 359.887 29.732 323.000 17.353 L 314.500 14.500 216.500 14.351 C 162.600 14.269 116.366 14.569 113.757 15.017 M 315.136 32.720 C 345.715 41.290 367.381 65.938 371.095 96.381 C 371.705 101.381 371.961 139.071 371.762 194.500 L 371.438 284.500 369.150 292.000 C 365.131 305.181 359.515 314.481 349.500 324.540 C 339.784 334.300 331.212 339.551 317.500 344.146 L 310.500 346.491 217.500 346.783 C 135.244 347.041 123.576 346.889 116.500 345.466 C 100.456 342.239 89.236 336.199 77.519 324.481 C 64.355 311.318 57.811 297.408 55.914 278.558 C 55.280 272.258 55.024 235.721 55.235 181.478 C 55.567 95.638 55.600 94.398 57.754 86.713 C 66.268 56.339 92.142 34.074 122.466 31.026 C 126.885 30.582 170.325 30.300 219.000 30.399 C 306.104 30.577 307.620 30.613 315.136 32.720 "/></g>
<g fill="#1B2A55FF" stroke="#1B2A55FF">
<path d="M 143.667 74.667 C 143.300 75.033 143.000 82.458 143.000 91.167 L 143.000 107.000 135.700 107.000 C 131.356 107.000 127.914 107.486 127.200 108.200 C 126.487 108.913 126.000 112.350 126.000 116.675 L 126.000 123.950 109.750 124.225 L 93.500 124.500 93.155 126.944 C 92.539 131.308 95.007 132.000 111.191 132.000 L 126.000 132.000 126.000 144.475 L 126.000 156.949 110.358 157.225 C 96.732 157.464 94.573 157.726 93.613 159.250 C 92.809 160.525 92.809 161.475 93.613 162.750 C 94.573 164.274 96.732 164.536 110.358 164.775 L 126.000 165.051 126.000 177.500 L 126.000 189.949 110.358 190.225 C 96.732 190.464 94.573 190.726 93.613 192.250 C 92.809 193.525 92.809 194.475 93.613 195.750 C 94.573 197.274 96.732 197.536 110.358 197.775 L 126.000 198.051 126.000 211.001 L 126.000 223.950 109.750 224.225 L 93.500 224.500 93.155 226.944 C 92.539 231.308 95.007 232.000 111.191 232.000 L 126.000 232.000 126.000 244.475 L 126.000 256.949 110.358 257.225 C 96.732 257.464 94.573 257.726 93.613 259.250 C 92.809 260.525 92.809 261.475 93.613 262.750 C 94.573 264.274 96.732 264.536 110.358 264.775 L 126.000 265.051 126.015 271.775 C 126.024 275.474 126.451 279.165 126.965 279.978 C 127.614 281.005 130.199 281.572 135.425 281.836 L 142.950 282.216 143.225 297.750 C 143.464 311.274 143.727 313.428 145.250 314.387 C 146.525 315.191 147.475 315.191 148.750 314.387 C 150.274 313.427 150.536 311.268 150.775 297.642 L 151.051 282.000 163.525 282.000 L 176.000 282.000 176.000 296.566 C 176.000 311.507 176.727 315.000 179.835 315.000 C 183.547 315.000 184.000 313.075 184.000 297.300 L 184.000 282.000 196.430 282.000 L 208.859 282.000 209.180 297.538 C 209.437 310.013 209.796 313.263 211.000 314.023 C 213.154 315.382 214.637 315.220 216.429 313.429 C 217.717 312.140 218.000 309.167 218.000 296.929 L 218.000 282.000 230.475 282.000 L 242.949 282.000 243.225 297.642 C 243.464 311.268 243.726 313.427 245.250 314.387 C 246.525 315.191 247.475 315.191 248.750 314.387 C 250.274 313.427 250.536 311.268 250.775 297.642 L 251.051 282.000 263.525 282.000 L 276.000 282.000 276.000 296.566 C 276.000 311.507 276.727 315.000 279.835 315.000 C 283.547 315.000 284.000 313.075 284.000 297.300 L 284.000 282.000 290.929 282.000 C 300.026 282.000 301.000 281.028 301.000 271.954 L 301.000 265.051 316.642 264.775 C 330.268 264.536 332.427 264.274 333.387 262.750 C 334.191 261.475 334.191 260.525 333.387 259.250 C 332.427 257.726 330.268 257.464 316.642 257.225 L 301.000 256.949 301.000 244.475 L 301.000 232.000 315.809 232.000 C 331.993 232.000 334.461 231.308 333.845 226.944 L 333.500 224.500 317.250 224.225 L 301.000 223.950 301.000 211.000 L 301.000 198.050 317.250 197.775 C 333.363 197.502 333.503 197.481 333.827 195.195 C 334.497 190.468 332.925 190.000 316.378 190.000 L 301.000 190.000 301.000 177.525 L 301.000 165.051 316.642 164.775 C 330.268 164.536 332.427 164.274 333.387 162.750 C 334.191 161.475 334.191 160.525 333.387 159.250 C 332.427 157.726 330.268 157.464 316.642 157.225 L 301.000 156.949 301.000 144.475 L 301.000 132.000 315.809 132.000 C 331.993 132.000 334.461 131.308 333.845 126.944 L 333.500 124.500 317.250 124.225 L 301.000 123.950 301.000 116.675 C 301.000 112.350 300.513 108.913 299.800 108.200 C 299.087 107.487 295.650 107.000 291.325 107.000 L 284.050 107.000 283.775 90.750 C 283.502 74.637 283.481 74.497 281.195 74.173 C 276.468 73.503 276.000 75.075 276.000 91.622 L 276.000 107.000 263.500 107.000 L 251.000 107.000 251.000 91.622 C 251.000 75.075 250.532 73.503 245.805 74.173 C 243.519 74.497 243.498 74.637 243.225 90.750 L 242.950 107.000 230.475 107.000 L 218.000 107.000 218.000 92.434 C 218.000 84.306 217.542 77.014 216.965 75.934 C 215.409 73.027 211.175 73.409 209.975 76.565 C 209.439 77.976 209.000 85.401 209.000 93.065 L 209.000 107.000 196.525 107.000 L 184.050 107.000 183.775 90.750 C 183.502 74.637 183.481 74.497 181.195 74.173 C 176.468 73.503 176.000 75.075 176.000 91.622 L 176.000 107.000 163.500 107.000 L 151.000 107.000 151.000 91.700 C 151.000 81.133 150.629 76.029 149.800 75.200 C 148.506 73.906 144.753 73.580 143.667 74.667 M 293.000 194.000 L 293.000 273.000 213.500 273.000 L 134.000 273.000 134.000 194.000 L 134.000 115.000 213.500 115.000 L 293.000 115.000 293.000 194.000 "/></g>
<g fill="#C6CAD4FF" stroke="#C6CAD4FF">
<path d="M 72.500 30.599 C 50.507 41.876 33.724 60.955 25.532 83.994 C 19.409 101.211 19.677 96.515 19.255 194.000 C 18.851 287.320 19.084 294.309 23.114 309.696 C 28.684 330.961 44.691 352.970 63.824 365.672 C 71.591 370.828 84.614 376.270 96.000 379.117 L 105.500 381.492 194.500 381.817 C 258.367 382.050 286.181 381.810 292.993 380.968 C 312.769 378.523 330.340 371.379 344.448 360.049 C 351.205 354.622 362.737 341.822 366.252 335.845 L 369.984 329.500 361.179 338.000 C 350.127 348.670 337.973 356.040 325.000 359.938 C 293.164 369.505 300.085 369.000 200.811 369.000 C 145.027 369.000 112.360 368.625 107.692 367.932 C 87.763 364.972 72.780 358.166 60.023 346.280 C 46.791 333.951 38.908 320.445 34.759 303.000 L 32.500 293.500 32.500 200.000 L 32.500 106.500 34.733 98.000 C 37.630 86.971 46.015 66.286 50.980 57.922 C 56.828 48.071 66.754 37.435 76.806 30.250 C 82.733 26.013 81.202 26.137 72.500 30.599 "/></g>
<g fill="#8D94AAFF" stroke="#8D94AAFF">
<path d="M 39.132 84.138 C 37.946 86.989 35.970 93.187 34.738 97.911 L 32.500 106.500 32.500 200.000 L 32.500 293.500 34.759 303.000 C 38.908 320.445 46.791 333.951 60.023 346.280 C 73.007 358.378 88.176 365.175 108.500 368.001 C 114.057 368.774 143.680 369.000 205.500 368.741 C 300.694 368.341 295.049 368.617 312.500 363.517 L 317.500 362.056 311.000 362.778 C 307.425 363.175 262.200 363.500 210.500 363.500 C 116.793 363.500 116.474 363.493 108.250 361.298 C 69.400 350.930 43.056 320.140 38.967 280.323 C 38.208 272.933 37.979 241.587 38.244 181.500 C 38.587 103.610 38.823 92.704 40.301 86.569 C 41.220 82.757 41.817 79.484 41.629 79.295 C 41.440 79.107 40.317 81.286 39.132 84.138 "/></g>
<g fill="#1B2A55FF" stroke="#1B2A55FF">
<path d="M 180.000 191.500 L 180.000 208.000 183.000 208.000 C 185.970 208.000 186.000 207.944 186.000 202.500 L 186.000 197.000 189.250 196.994 C 198.324 196.979 204.184 192.766 204.358 186.134 C 204.550 178.811 198.620 175.000 187.032 175.000 L 180.000 175.000 180.000 191.500 M 197.800 181.200 C 198.460 181.860 199.000 184.020 199.000 186.000 C 199.000 190.865 197.543 192.000 191.300 192.000 L 186.000 192.000 186.000 186.000 L 186.000 180.000 191.300 180.000 C 194.215 180.000 197.140 180.540 197.800 181.200 "/></g>
<g fill="#1B2A55FF" stroke="#1B2A55FF">
<path d="M 253.279 191.250 C 246.412 206.914 246.236 207.511 248.403 207.800 C 250.186 208.037 251.030 207.261 252.478 204.050 L 254.304 200.000 262.500 200.000 L 270.696 200.000 272.500 204.000 C 273.887 207.075 274.866 208.000 276.735 208.000 C 278.073 208.000 279.017 207.616 278.833 207.147 C 278.650 206.678 275.404 199.253 271.620 190.647 C 262.441 169.769 262.700 169.760 253.279 191.250 M 265.513 187.624 C 266.881 190.718 268.000 193.643 268.000 194.124 C 268.000 194.606 265.525 195.000 262.500 195.000 C 259.475 195.000 257.000 194.606 257.000 194.124 C 257.000 192.798 261.898 182.000 262.500 182.000 C 262.789 182.000 264.145 184.531 265.513 187.624 "/></g>
<g fill="#1B2A55FF" stroke="#1B2A55FF">
<path d="M 221.500 176.479 C 210.122 180.567 206.849 195.270 215.606 202.959 C 221.687 208.298 229.052 208.936 237.250 204.835 L 241.000 202.959 241.000 196.480 L 241.000 190.000 234.000 190.000 C 227.200 190.000 227.000 190.071 227.000 192.500 C 227.000 194.750 227.400 195.000 231.000 195.000 C 234.881 195.000 235.000 195.101 235.000 198.393 C 235.000 202.370 233.885 203.000 226.841 203.000 C 222.654 203.000 221.374 202.527 218.923 200.077 C 216.405 197.559 216.000 196.396 216.000 191.683 C 216.000 187.025 216.432 185.750 218.901 183.106 C 221.380 180.453 222.513 180.000 226.679 180.000 C 229.361 180.000 232.498 180.661 233.651 181.468 C 235.534 182.787 235.922 182.743 237.463 181.040 C 239.102 179.230 239.051 179.078 236.340 177.690 C 231.798 175.365 225.932 174.886 221.500 176.479 "/></g>
<g fill="#1B2A55FF" stroke="#1B2A55FF">
<path d="M 149.000 191.500 L 149.000 208.000 152.000 208.000 L 155.000 208.000 155.000 201.000 L 155.000 194.000 163.000 194.000 C 170.867 194.000 171.000 193.958 171.000 191.500 C 171.000 189.042 170.867 189.000 163.000 189.000 L 155.000 189.000 155.000 184.500 L 155.000 180.000 164.000 180.000 C 172.933 180.000 173.000 179.981 173.000 177.500 L 173.000 175.000 161.000 175.000 L 149.000 175.000 149.000 191.500 "/></g>
<g fill="#C6CAD4FF" stroke="#C6CAD4FF">
<path d="M 301.433 166.314 C 301.156 167.037 301.057 172.550 301.214 178.564 L 301.500 189.500 316.250 189.484 L 331.000 189.469 316.500 189.234 L 302.000 189.000 302.000 177.527 L 302.000 166.053 316.750 165.748 L 331.500 165.442 316.719 165.221 C 305.271 165.050 301.823 165.296 301.433 166.314 "/></g>
<g fill="#C6CAD4FF" stroke="#C6CAD4FF">
<path d="M 110.250 165.734 L 125.000 166.053 125.000 177.527 L 125.000 189.000 111.000 189.234 L 97.000 189.468 111.250 189.484 L 125.500 189.500 125.500 177.500 L 125.500 165.500 110.500 165.457 L 95.500 165.414 110.250 165.734 "/></g>
<g fill="#8D94AAFF" stroke="#8D94AAFF">
<path d="M 184.222 91.250 L 184.000 107.000 196.750 106.784 L 209.500 106.568 197.276 106.253 L 185.052 105.939 184.748 90.719 L 184.444 75.500 184.222 91.250 "/></g>
<g fill="#8D94AAFF" stroke="#8D94AAFF">
<path d="M 242.222 91.219 L 242.000 105.938 229.750 106.253 L 217.500 106.568 230.276 106.784 L 243.052 107.000 242.748 91.750 L 242.444 76.500 242.222 91.219 "/></g>
<g fill="#8D94AAFF" stroke="#8D94AAFF">
<path d="M 284.222 91.250 L 284.000 107.000 291.250 106.804 L 298.500 106.608 291.776 106.259 L 285.052 105.910 284.748 90.705 L 284.444 75.500 284.222 91.250 "/></g>
<g fill="#8D94AAFF" stroke="#8D94AAFF">
<path d="M 142.222 91.204 L 142.000 105.909 135.250 106.258 L 128.500 106.608 135.776 106.804 L 143.052 107.000 142.748 91.750 L 142.444 76.500 142.222 91.204 "/></g>
<g fill="#C6CAD4FF" stroke="#C6CAD4FF">
<path d="M 301.415 266.362 C 301.127 267.111 301.056 270.374 301.257 273.612 L 301.622 279.500 301.811 272.777 L 302.000 266.053 316.750 265.748 L 331.500 265.442 316.719 265.221 C 305.014 265.046 301.828 265.283 301.415 266.362 "/></g>
<g fill="#C6CAD4FF" stroke="#C6CAD4FF">
<path d="M 110.250 265.734 L 125.000 266.053 125.217 272.027 L 125.433 278.000 125.467 271.750 L 125.500 265.500 110.500 265.457 L 95.500 265.414 110.250 265.734 "/></g>
<g fill="#8D94AAFF" stroke="#8D94AAFF">
<path d="M 93.872 197.250 C 95.089 198.802 97.016 198.975 110.872 198.778 L 126.500 198.556 111.070 198.251 C 100.859 198.049 95.109 197.532 94.070 196.723 C 92.686 195.645 92.663 195.707 93.872 197.250 "/></g>
<g fill="#8D94AAFF" stroke="#8D94AAFF">
<path d="M 362.000 336.961 L 356.500 342.551 362.000 336.961 L 367.500 331.370 362.000 336.961 "/></g>
<g fill="#8D94AAFF" stroke="#8D94AAFF">
<path d="M 336.000 355.050 C 332.975 356.621 330.852 357.927 331.283 357.953 C 332.380 358.019 342.277 352.940 341.849 352.530 C 341.657 352.346 339.025 353.480 336.000 355.050 "/></g>
<g fill="#8D94AAFF" stroke="#8D94AAFF">
<path d="M 77.500 324.500 L 83.000 330.000 77.500 324.500 L 72.000 319.000 77.500 324.500 "/></g>
<g fill="#8D94AAFF" stroke="#8D94AAFF">
<path d="M 46.679 65.546 C 44.330 70.473 44.661 71.311 47.116 66.656 C 48.232 64.541 48.968 62.634 48.752 62.418 C 48.535 62.202 47.603 63.610 46.679 65.546 "/></g>
<g fill="#8D94AAFF" stroke="#8D94AAFF">
<path d="M 350.000 53.000 L 354.000 57.000 350.000 53.000 L 346.000 49.000 350.000 53.000 "/></g>
<g fill="#8D94AAFF" stroke="#8D94AAFF">
<path d="M 276.872 74.750 C 275.679 76.272 275.695 76.351 277.000 75.358 C 277.825 74.729 279.400 73.994 280.500 73.724 C 282.400 73.257 282.393 73.226 280.372 73.116 C 279.202 73.052 277.627 73.788 276.872 74.750 "/></g>
<g fill="#8D94AAFF" stroke="#8D94AAFF">
<path d="M 246.500 73.724 C 247.600 73.994 249.175 74.729 250.000 75.358 C 251.305 76.351 251.321 76.272 250.128 74.750 C 249.373 73.788 247.798 73.052 246.628 73.116 C 244.607 73.226 244.600 73.257 246.500 73.724 "/></g>
<g fill="#8D94AAFF" stroke="#8D94AAFF">
<path d="M 176.872 74.750 C 175.679 76.272 175.695 76.351 177.000 75.358 C 177.825 74.729 179.400 73.994 180.500 73.724 C 182.400 73.257 182.393 73.226 180.372 73.116 C 179.202 73.052 177.627 73.788 176.872 74.750 "/></g>
<g fill="#8D94AAFF" stroke="#8D94AAFF">
<path d="M 146.500 73.724 C 147.600 73.994 149.175 74.729 150.000 75.358 C 151.305 76.351 151.321 76.272 150.128 74.750 C 149.373 73.788 147.798 73.052 146.628 73.116 C 144.607 73.226 144.600 73.257 146.500 73.724 "/></g>
<g fill="#8D94AAFF" stroke="#8D94AAFF">
<path d="M 345.500 328.410 L 343.500 330.567 345.500 328.410 L 347.500 326.253 345.500 328.410 "/></g>
<g fill="#8D94AAFF" stroke="#8D94AAFF">
<path d="M 353.500 320.410 L 351.500 322.567 353.500 320.410 L 355.500 318.253 353.500 320.410 "/></g>
<g fill="#8D94AAFF" stroke="#8D94AAFF">
<path d="M 333.486 259.621 C 334.366 261.309 334.990 261.826 334.994 260.872 C 334.997 259.977 334.322 258.682 333.493 257.994 C 332.150 256.879 332.149 257.057 333.486 259.621 "/></g>
<g fill="#8D94AAFF" stroke="#8D94AAFF">
<path d="M 333.486 159.621 C 334.366 161.309 334.990 161.826 334.994 160.872 C 334.997 159.977 334.322 158.682 333.493 157.994 C 332.150 156.879 332.149 157.057 333.486 159.621 "/></g>
<g fill="#8D94AAFF" stroke="#8D94AAFF">
<path d="M 70.500 35.410 L 68.500 37.567 70.500 35.410 L 72.500 33.253 70.500 35.410 "/></g>
<g fill="#C6CAD4FF" stroke="#C6CAD4FF">
<path d="M 359.000 37.000 L 361.500 39.500 359.000 37.000 L 356.500 34.500 359.000 37.000 "/></g>
</svg>
