<?xml version="1.0" encoding="utf-8"?>
<!DOCTYPE svg PUBLIC "-//W3C//DTD SVG 20010904//EN" "http://www.w3.org/TR/2001/REC-SVG-20010904/DTD/svg10.dtd">
<svg version="1.0" xmlns="http://www.w3.org/2000/svg" width="476pt" height="476pt" viewBox="0 0 476 476" style="" preserveAspectRatio="xMidYMid meet">
<g fill="#447694FE" stroke="#447694FE">
<path d="M 76.655 204.829 C 75.142 206.501 75.000 214.139 75.000 294.129 C 75.000 360.829 75.285 381.885 76.200 382.800 C 77.945 384.545 398.055 384.545 399.800 382.800 C 400.715 381.885 401.000 360.790 401.000 293.955 C 401.000 210.316 400.916 206.234 399.171 204.655 C 397.486 203.130 384.854 203.000 237.826 203.000 C 84.559 203.000 78.245 203.072 76.655 204.829 M 208.595 231.104 C 210.375 233.070 210.520 235.408 210.802 266.854 C 210.967 285.359 210.837 301.948 210.512 303.718 C 209.300 310.319 212.071 310.000 156.000 310.000 C 100.918 310.000 102.832 310.187 101.460 304.680 C 101.161 303.481 101.048 286.909 101.208 267.854 C 101.481 235.416 101.621 233.073 103.405 231.104 C 105.294 229.018 105.747 229.000 156.000 229.000 C 206.252 229.000 206.706 229.018 208.595 231.104 M 294.417 234.884 C 302.043 238.639 309.136 245.923 312.820 253.782 C 315.167 258.789 315.500 260.743 315.500 269.500 C 315.500 278.404 315.185 280.182 312.626 285.722 C 309.104 293.346 301.301 301.033 293.253 304.804 C 288.207 307.169 286.271 307.500 277.500 307.500 C 268.576 307.500 266.888 307.199 261.808 304.705 C 233.587 290.847 231.074 253.637 257.225 236.856 C 264.123 232.429 270.108 230.988 279.812 231.418 C 286.621 231.720 289.261 232.346 294.417 234.884 M 370.429 225.571 C 371.822 226.965 372.000 233.959 372.000 287.449 C 372.000 334.497 371.725 347.974 370.750 348.750 C 370.063 349.297 364.459 349.972 358.298 350.250 C 349.553 350.644 346.646 350.440 345.048 349.321 C 343.023 347.902 343.000 347.221 343.000 287.500 L 343.000 227.113 345.223 225.557 C 348.434 223.308 368.176 223.319 370.429 225.571 M 143.783 346.250 L 143.500 357.500 122.500 357.500 L 101.500 357.500 101.217 346.250 L 100.934 335.000 122.500 335.000 L 144.066 335.000 143.783 346.250 M 210.528 338.295 C 210.868 340.108 211.000 345.170 210.823 349.545 L 210.500 357.500 189.500 357.500 L 168.500 357.500 168.217 346.250 L 167.934 335.000 188.922 335.000 L 209.909 335.000 210.528 338.295 M 303.171 342.655 C 306.802 345.941 304.880 351.000 300.000 351.000 C 296.653 351.000 295.000 349.298 295.000 345.850 C 295.000 341.437 299.767 339.574 303.171 342.655 M 258.800 343.200 C 259.460 343.860 260.000 345.345 260.000 346.500 C 260.000 347.655 259.460 349.140 258.800 349.800 C 255.995 352.605 251.000 350.492 251.000 346.500 C 251.000 343.820 252.820 342.000 255.500 342.000 C 256.655 342.000 258.140 342.540 258.800 343.200 M 280.800 343.200 C 282.458 344.858 282.304 348.503 280.513 349.989 C 276.736 353.124 270.876 347.264 274.011 343.487 C 275.497 341.696 279.142 341.542 280.800 343.200 "/></g>
<g fill="#447694FE" stroke="#447694FE">
<path d="M 87.223 161.557 C 85.059 163.072 85.000 163.615 85.000 182.057 L 85.000 201.000 111.500 201.000 L 138.000 201.000 138.000 195.055 C 138.000 189.555 137.794 189.010 135.250 187.791 C 132.110 186.286 129.538 179.976 130.501 176.140 C 130.832 174.822 132.395 172.451 133.974 170.872 C 139.561 165.285 148.706 167.926 151.053 175.804 C 152.449 180.489 151.184 184.065 147.050 187.121 C 144.258 189.185 144.000 189.869 144.000 195.188 L 144.000 201.000 160.500 201.000 L 177.000 201.000 177.000 195.067 C 177.000 189.947 176.717 189.045 174.931 188.478 C 172.142 187.593 169.008 182.226 169.004 178.327 C 168.996 171.376 177.318 166.232 184.056 169.023 C 188.293 170.778 190.000 173.686 190.000 179.150 C 190.000 183.364 189.612 184.174 186.277 186.923 C 182.832 189.763 182.548 190.403 182.469 195.496 L 182.385 201.000 199.192 201.000 L 216.000 201.000 216.000 195.067 C 216.000 190.063 215.695 189.038 214.050 188.516 C 211.324 187.651 208.000 181.891 208.000 178.032 C 208.000 175.690 208.936 173.864 211.400 171.400 C 220.569 162.231 233.874 173.494 227.065 184.661 C 226.005 186.399 224.207 188.117 223.069 188.478 C 221.283 189.045 221.000 189.947 221.000 195.067 L 221.000 201.000 238.005 201.000 L 255.010 201.000 254.877 195.102 C 254.761 189.971 254.442 189.067 252.424 188.148 C 244.897 184.718 245.387 172.154 253.174 168.928 C 259.599 166.266 268.000 171.505 268.000 178.172 C 268.000 181.917 265.415 186.440 262.331 188.091 C 260.299 189.178 260.000 190.086 260.000 195.169 L 260.000 201.000 276.500 201.000 L 293.000 201.000 293.083 197.250 C 293.129 195.188 293.278 192.494 293.415 191.264 C 293.573 189.840 293.008 188.820 291.858 188.455 C 286.020 186.602 283.982 176.457 288.413 171.306 C 290.460 168.926 291.588 168.500 295.833 168.500 C 299.746 168.500 301.399 169.026 303.404 170.910 C 308.458 175.658 307.630 184.589 301.859 187.573 C 299.198 188.949 299.000 189.464 299.000 195.026 L 299.000 201.000 315.500 201.000 L 332.000 201.000 332.000 195.216 C 332.000 189.881 331.772 189.297 329.073 187.702 C 323.384 184.341 322.889 175.126 328.143 170.371 C 331.260 167.550 339.100 167.806 342.324 170.835 C 347.229 175.442 346.097 185.268 340.361 187.881 C 338.260 188.839 338.000 189.621 338.000 194.979 L 338.000 201.000 364.522 201.000 L 391.043 201.000 390.772 181.779 L 390.500 162.557 388.000 161.293 C 386.019 160.292 354.754 160.026 237.473 160.015 C 105.099 160.002 89.210 160.165 87.223 161.557 "/></g>
<g fill="#447694FE" stroke="#447694FE">
<path d="M 90.250 386.699 L 85.000 387.105 85.000 404.830 C 85.000 419.254 85.290 422.969 86.557 424.777 L 88.113 427.000 237.902 427.000 C 381.744 427.000 387.756 426.927 389.345 425.171 C 390.756 423.612 391.000 420.685 391.000 405.300 L 391.000 387.258 386.250 386.688 C 383.638 386.374 372.725 386.300 362.000 386.523 C 351.275 386.746 341.488 386.945 340.250 386.964 C 338.196 386.997 338.000 387.475 338.000 392.465 C 338.000 396.954 338.367 398.126 340.054 399.029 C 342.528 400.353 345.991 405.785 345.996 408.349 C 345.998 409.366 345.290 411.693 344.423 413.521 C 342.608 417.346 337.001 420.105 332.710 419.285 C 329.603 418.691 325.308 414.075 324.365 410.317 C 323.522 406.960 326.299 401.277 329.492 399.822 C 331.745 398.795 332.000 398.095 332.000 392.946 C 332.000 388.642 331.606 387.063 330.418 386.607 C 328.372 385.822 304.194 385.841 301.250 386.630 C 299.248 387.167 299.004 387.854 299.039 392.867 C 299.074 398.105 299.302 398.641 302.289 400.516 C 306.348 403.064 307.923 408.357 306.003 412.994 C 302.309 421.912 289.462 421.220 286.378 411.936 C 284.893 407.464 286.571 402.578 290.469 400.020 C 293.163 398.253 293.366 397.697 293.107 392.808 C 292.952 389.894 292.302 387.187 291.663 386.791 C 290.449 386.041 263.431 386.035 261.250 386.784 C 260.472 387.052 260.000 389.119 260.000 392.261 C 260.000 396.893 260.339 397.620 264.133 401.123 C 268.059 404.747 268.241 405.169 267.752 409.510 C 267.142 414.923 264.975 417.637 260.215 418.951 C 253.285 420.864 247.000 415.952 247.000 408.623 C 247.000 405.371 247.657 404.065 250.796 401.079 C 254.114 397.923 254.627 396.815 254.867 392.292 C 255.141 387.132 255.132 387.116 251.821 386.599 C 249.009 386.160 226.095 386.346 222.250 386.840 C 221.437 386.944 221.000 388.760 221.000 392.040 C 221.000 396.619 221.366 397.428 225.000 400.885 C 228.391 404.111 229.000 405.311 229.000 408.768 C 229.000 411.655 228.273 413.711 226.511 415.805 C 220.135 423.382 208.015 418.383 208.004 408.171 C 208.001 405.632 208.948 403.875 212.000 400.762 C 215.529 397.163 216.000 396.124 216.000 391.948 C 216.000 389.069 215.510 387.037 214.750 386.761 C 212.651 386.001 190.511 385.813 186.727 386.523 C 183.222 387.181 183.169 387.265 182.837 392.695 C 182.550 397.389 182.795 398.350 184.500 399.217 C 190.478 402.257 191.925 410.559 187.411 415.923 C 185.187 418.566 184.150 419.000 180.057 419.000 C 176.405 419.000 174.683 418.436 172.686 416.585 C 167.626 411.895 167.933 406.029 173.542 400.253 C 176.582 397.124 177.000 396.067 177.000 391.518 L 177.000 386.343 160.500 386.114 L 144.000 385.885 144.006 392.192 C 144.012 398.093 144.198 398.606 146.892 400.138 C 150.686 402.296 152.667 407.974 151.017 411.960 C 148.304 418.510 141.486 421.203 135.597 418.052 C 132.853 416.583 130.000 411.461 130.000 408.003 C 130.000 405.177 133.471 400.303 136.072 399.477 C 137.856 398.911 138.057 398.118 137.796 392.668 L 137.500 386.500 116.500 386.397 C 104.950 386.340 93.138 386.476 90.250 386.699 "/></g>
<g fill="#383838FE" stroke="#383838FE">
<path d="M 171.750 44.569 C 171.338 44.989 171.000 56.933 171.000 71.109 L 171.000 96.885 176.057 96.846 L 181.113 96.807 180.916 87.154 L 180.719 77.500 191.013 76.810 C 196.675 76.431 201.576 75.756 201.904 75.310 C 202.232 74.865 203.175 74.372 204.000 74.215 C 206.098 73.816 211.184 68.106 210.470 66.952 C 210.147 66.428 210.278 66.000 210.763 66.000 C 211.997 66.000 211.456 56.171 210.006 52.250 C 209.345 50.463 208.173 49.000 207.402 49.000 C 206.631 49.000 206.000 48.550 206.000 48.000 C 206.000 47.450 205.138 47.000 204.083 47.000 C 203.029 47.000 201.982 46.446 201.756 45.768 C 201.290 44.370 173.053 43.241 171.750 44.569 M 197.046 52.972 C 196.219 53.483 196.521 53.903 197.990 54.287 C 199.177 54.598 200.393 55.785 200.691 56.926 C 200.989 58.067 201.631 59.000 202.117 59.000 C 203.511 59.000 203.148 60.995 201.442 62.700 C 200.586 63.557 200.131 64.898 200.431 65.681 C 200.731 66.464 200.573 66.854 200.079 66.549 C 198.838 65.782 195.893 67.018 196.525 68.041 C 197.213 69.153 182.787 68.187 181.645 67.045 C 180.590 65.990 180.494 56.278 181.513 53.743 C 182.110 52.257 183.457 52.004 190.240 52.103 C 194.652 52.168 197.714 52.559 197.046 52.972 "/></g>
<g fill="#383838FE" stroke="#383838FE">
<path d="M 278.750 44.662 C 277.788 44.929 277.000 45.590 277.000 46.132 C 277.000 46.674 276.588 46.863 276.085 46.552 C 274.926 45.836 268.818 50.897 269.504 52.006 C 269.783 52.459 269.508 52.997 268.892 53.203 C 267.459 53.680 267.094 56.701 266.652 71.750 C 266.454 78.488 266.663 84.000 267.115 84.000 C 267.567 84.000 267.692 84.640 267.391 85.423 C 267.091 86.205 267.743 87.743 268.839 88.839 C 269.936 89.936 270.635 91.032 270.393 91.274 C 270.150 91.517 270.638 92.284 271.476 92.980 C 272.314 93.676 273.000 93.879 273.000 93.431 C 273.000 92.984 273.598 93.435 274.328 94.434 C 275.058 95.433 276.867 96.250 278.346 96.250 C 279.826 96.250 281.247 96.590 281.504 97.006 C 282.169 98.083 293.295 97.447 295.628 96.199 C 299.203 94.286 304.854 88.516 305.934 85.675 C 307.858 80.614 307.436 80.000 302.035 80.000 C 298.094 80.000 296.850 80.412 296.000 82.000 C 295.411 83.100 295.283 84.008 295.715 84.017 C 297.986 84.066 289.476 88.248 286.552 88.519 C 283.786 88.777 282.421 88.190 279.606 85.535 C 277.679 83.718 276.279 82.054 276.495 81.838 C 276.711 81.622 276.967 76.062 277.065 69.482 C 277.219 59.029 277.479 57.353 279.121 56.203 C 280.154 55.479 281.007 54.125 281.015 53.193 C 281.028 51.790 281.186 51.746 281.939 52.936 C 282.679 54.105 283.131 54.136 284.376 53.103 C 285.216 52.406 286.713 52.092 287.702 52.405 C 288.691 52.719 289.827 52.992 290.227 53.011 C 291.550 53.074 295.834 57.899 296.179 59.715 C 296.448 61.128 297.662 61.556 302.009 61.770 C 305.946 61.964 307.076 61.756 306.000 61.035 C 304.893 60.294 304.845 60.027 305.817 60.015 C 307.350 59.998 306.424 55.957 304.615 54.765 C 303.976 54.344 303.927 54.011 304.500 53.985 C 305.050 53.960 304.713 53.481 303.750 52.920 C 302.788 52.359 302.000 51.248 302.000 50.450 C 302.000 49.653 301.619 49.000 301.153 49.000 C 300.687 49.000 299.301 48.128 298.072 47.062 C 296.843 45.997 295.199 45.370 294.419 45.669 C 293.639 45.969 293.000 45.818 293.000 45.334 C 293.000 44.391 281.660 43.856 278.750 44.662 "/></g>
<g fill="#383838FE" stroke="#383838FE">
<path d="M 222.293 70.250 L 222.500 96.500 238.946 96.809 C 259.640 97.198 260.211 97.072 259.808 92.216 L 259.500 88.500 245.846 88.222 C 235.781 88.018 232.062 87.604 231.695 86.647 C 231.421 85.933 231.265 76.045 231.348 64.675 L 231.500 44.001 226.793 44.000 L 222.086 44.000 222.293 70.250 "/></g>
<g fill="#447694FE" stroke="#447694FE">
<path d="M 114.667 259.667 C 114.300 260.033 114.000 260.708 114.000 261.167 C 114.000 261.625 130.875 262.000 151.500 262.000 C 184.167 262.000 189.000 261.807 189.000 260.500 C 189.000 259.194 184.241 259.000 152.167 259.000 C 131.908 259.000 115.033 259.300 114.667 259.667 "/></g>
<g fill="#447694FE" stroke="#447694FE">
<path d="M 114.464 270.059 C 113.019 272.396 115.999 272.848 131.765 272.679 C 145.894 272.528 148.500 272.266 148.500 271.000 C 148.500 269.734 145.890 269.470 131.773 269.309 C 122.171 269.199 114.798 269.518 114.464 270.059 "/></g>
<g fill="#447694FE" stroke="#447694FE">
<path d="M 112.208 239.676 C 111.198 240.082 111.177 240.509 112.116 241.639 C 113.059 242.776 116.029 243.053 126.014 242.940 C 138.912 242.793 142.947 241.950 140.000 240.015 C 138.478 239.016 114.580 238.725 112.208 239.676 "/></g>
<g fill="#447694FE" stroke="#447694FE">
<path d="M 255.243 404.106 C 252.204 405.230 251.277 409.543 253.536 412.040 C 256.019 414.783 259.610 414.525 261.619 411.459 C 264.639 406.849 260.556 402.140 255.243 404.106 "/></g>
<g fill="#447694FE" stroke="#447694FE">
<path d="M 216.338 174.067 C 211.793 175.757 212.646 182.371 217.569 183.607 C 220.644 184.378 224.000 181.696 224.000 178.467 C 224.000 174.933 220.073 172.678 216.338 174.067 "/></g>
<g fill="#447694FE" stroke="#447694FE">
<path d="M 293.077 174.923 C 290.472 177.528 290.431 180.175 292.960 182.464 C 297.092 186.203 303.614 180.884 300.965 175.935 C 300.396 174.871 299.532 174.000 299.047 174.000 C 298.561 174.000 297.487 173.740 296.659 173.423 C 295.832 173.105 294.220 173.780 293.077 174.923 "/></g>
<g fill="#447694FE" stroke="#447694FE">
<path d="M 254.051 174.949 C 251.593 177.407 251.490 178.827 253.557 181.777 C 255.489 184.536 258.377 184.623 261.000 182.000 C 263.310 179.690 263.510 178.031 261.750 175.792 C 259.588 173.041 256.317 172.683 254.051 174.949 "/></g>
<g fill="#447694FE" stroke="#447694FE">
<path d="M 292.200 405.200 C 290.517 406.883 290.706 410.564 292.571 412.429 C 294.952 414.809 298.709 414.374 300.592 411.500 C 302.109 409.184 302.109 408.816 300.592 406.500 C 298.807 403.776 294.319 403.081 292.200 405.200 "/></g>
<g fill="#447694FE" stroke="#447694FE">
<path d="M 176.455 405.455 C 173.479 408.430 173.411 409.411 176.000 412.000 C 178.491 414.491 181.189 414.554 183.345 412.171 C 185.650 409.625 185.409 406.400 182.777 404.557 C 179.839 402.499 179.339 402.570 176.455 405.455 "/></g>
<g fill="#447694FE" stroke="#447694FE">
<path d="M 138.223 404.557 C 132.828 408.335 137.474 415.928 143.500 413.182 C 146.810 411.674 146.967 406.791 143.777 404.557 C 142.555 403.701 141.305 403.000 141.000 403.000 C 140.695 403.000 139.445 403.701 138.223 404.557 "/></g>
<g fill="#447694FE" stroke="#447694FE">
<path d="M 176.415 175.320 C 173.875 177.505 173.799 177.809 175.118 180.570 C 176.789 184.067 180.352 184.897 183.082 182.425 C 185.739 180.021 185.496 176.555 182.535 174.615 C 179.431 172.581 179.624 172.559 176.415 175.320 "/></g>
<g fill="#447694FE" stroke="#447694FE">
<path d="M 332.991 404.311 C 329.292 406.145 328.953 411.566 332.437 413.153 C 336.540 415.023 340.215 412.882 339.813 408.856 C 339.392 404.642 336.375 402.632 332.991 404.311 "/></g>
<g fill="#447694FE" stroke="#447694FE">
<path d="M 137.655 174.829 C 134.304 178.531 136.428 184.040 141.184 183.985 C 145.625 183.933 147.418 177.106 143.679 174.488 C 140.900 172.541 139.662 172.611 137.655 174.829 "/></g>
<g fill="#447694FE" stroke="#447694FE">
<path d="M 214.571 405.571 C 212.465 407.678 212.592 409.592 215.000 412.000 C 217.719 414.719 220.618 414.513 222.619 411.459 C 223.952 409.424 224.061 408.428 223.163 406.459 C 221.839 403.553 217.081 403.061 214.571 405.571 "/></g>
<g fill="#447694FE" stroke="#447694FE">
<path d="M 334.500 173.724 C 331.232 174.527 330.192 175.899 330.415 179.113 C 330.869 185.672 340.000 185.600 340.000 179.036 C 340.000 176.776 337.608 172.512 336.679 173.116 C 336.580 173.180 335.600 173.453 334.500 173.724 "/></g>
<g fill="#447694FE" stroke="#447694FE">
<path d="M 152.675 292.658 C 152.313 293.020 152.424 293.807 152.921 294.408 C 153.512 295.123 158.171 295.394 166.412 295.193 C 176.571 294.945 179.000 294.607 179.000 293.443 C 179.000 292.261 176.681 292.000 166.167 292.000 C 159.108 292.000 153.037 292.296 152.675 292.658 "/></g>
<g fill="#447694FE" stroke="#447694FE">
<path d="M 114.695 292.638 C 112.764 294.569 115.115 295.000 127.583 295.000 C 138.005 295.000 141.070 294.709 140.752 293.750 C 140.298 292.384 115.987 291.346 114.695 292.638 "/></g>
<g fill="#383838FE" stroke="#383838FE">
<path d="M 189.150 261.000 C 189.054 261.641 175.712 262.087 152.000 262.244 L 115.000 262.487 152.250 262.494 C 181.440 262.499 189.478 262.230 189.400 261.250 C 189.345 260.563 189.233 260.450 189.150 261.000 "/></g>
<g fill="#FEFEFEFE" stroke="#FEFEFEFE">
<path d="M 113.413 268.141 C 113.151 268.565 121.050 268.820 130.968 268.706 L 149.000 268.500 149.000 270.750 C 149.000 271.988 149.389 273.000 149.863 273.000 C 150.587 273.000 150.695 270.875 150.128 267.811 C 149.951 266.859 114.005 267.182 113.413 268.141 "/></g>
<g fill="#709AACFE" stroke="#709AACFE">
<path d="M 101.451 346.500 L 101.500 357.500 122.250 357.489 L 143.000 357.477 122.533 357.239 L 102.066 357.000 101.734 346.250 L 101.402 335.500 101.451 346.500 "/></g>
<g fill="#FEFEFEFE" stroke="#FEFEFEFE">
<path d="M 251.937 343.576 C 250.853 344.882 250.875 345.311 252.064 346.076 C 253.221 346.821 253.248 347.163 252.203 347.838 C 251.181 348.499 251.274 348.976 252.645 350.088 C 253.767 350.999 254.117 351.056 253.633 350.250 C 253.168 349.475 253.443 349.000 254.358 349.000 C 255.169 349.000 256.023 349.563 256.254 350.250 C 256.917 352.219 260.000 349.197 260.000 346.578 C 260.000 342.280 254.661 340.293 251.937 343.576 "/></g>
<g fill="#FEFEFEFE" stroke="#FEFEFEFE">
<path d="M 274.011 343.487 C 272.542 345.257 273.525 350.412 275.141 349.413 C 275.736 349.045 276.610 349.364 277.083 350.122 C 278.380 352.200 281.305 349.953 281.445 346.772 C 281.508 345.332 281.259 344.340 280.893 344.566 C 280.526 344.793 279.671 344.308 278.991 343.489 C 277.418 341.593 275.583 341.593 274.011 343.487 "/></g>
<g fill="#FEFEFEFE" stroke="#FEFEFEFE">
<path d="M 170.473 73.000 C 170.494 92.774 170.781 98.478 171.750 98.400 C 172.438 98.345 172.558 98.233 172.017 98.150 C 171.412 98.058 170.921 88.289 170.740 72.750 L 170.446 47.500 170.473 73.000 "/></g>
<g fill="#709AACFE" stroke="#709AACFE">
<path d="M 210.150 356.036 C 210.051 356.716 202.719 357.035 188.750 356.965 C 177.063 356.906 168.188 357.125 169.028 357.451 C 169.869 357.777 179.544 357.921 190.528 357.772 C 205.760 357.565 210.476 357.203 210.400 356.250 C 210.345 355.563 210.233 355.466 210.150 356.036 "/></g>
<g fill="#FEFEFEFE" stroke="#FEFEFEFE">
<path d="M 111.091 237.390 C 110.356 238.276 110.148 239.022 110.628 239.049 C 114.354 239.256 139.921 238.826 141.500 238.529 C 144.520 237.961 142.749 237.895 127.348 237.996 C 117.466 238.062 113.081 237.742 112.812 236.935 C 112.557 236.170 111.976 236.324 111.091 237.390 "/></g>
<g fill="#FEFEFEFE" stroke="#FEFEFEFE">
<path d="M 111.002 243.500 C 111.003 244.127 116.590 244.460 125.978 244.393 C 134.214 244.334 140.663 243.996 140.309 243.643 C 139.956 243.289 140.079 242.978 140.583 242.952 C 141.088 242.925 134.638 242.813 126.251 242.702 C 116.616 242.574 111.002 242.868 111.002 243.500 "/></g>
<g fill="#FEFEFEFE" stroke="#FEFEFEFE">
<path d="M 266.256 56.500 C 265.526 58.846 265.080 65.049 265.177 71.500 L 265.343 82.500 266.078 69.500 C 266.482 62.350 266.968 55.600 267.157 54.500 C 267.345 53.400 266.940 54.300 266.256 56.500 "/></g>
<g fill="#FEFEFEFE" stroke="#FEFEFEFE">
<path d="M 170.345 44.543 C 170.019 45.392 170.034 46.367 170.376 46.710 C 170.719 47.053 171.000 46.596 171.000 45.696 C 171.000 44.277 172.770 44.017 184.250 43.747 L 197.500 43.437 184.219 43.218 C 173.035 43.034 170.844 43.244 170.345 44.543 "/></g>
<g fill="#FEFEFEFE" stroke="#FEFEFEFE">
<path d="M 341.167 170.955 C 341.350 171.755 340.825 172.436 340.000 172.470 C 338.872 172.516 338.810 172.727 339.750 173.324 C 340.438 173.761 341.000 173.834 341.000 173.488 C 341.000 173.141 341.742 173.599 342.650 174.507 C 344.182 176.040 344.166 176.133 342.415 175.828 C 340.947 175.573 340.516 176.124 340.468 178.316 C 340.433 179.865 340.733 181.335 341.134 181.583 C 342.337 182.326 343.183 180.101 342.312 178.483 C 341.602 177.167 341.702 177.158 343.105 178.414 C 344.548 179.708 344.699 179.483 344.605 176.176 C 344.547 174.154 344.050 172.613 343.500 172.750 C 342.950 172.888 342.500 172.588 342.500 172.083 C 342.500 171.579 342.125 170.792 341.667 170.333 C 341.208 169.875 340.983 170.155 341.167 170.955 "/></g>
<g fill="#FEFEFEFE" stroke="#FEFEFEFE">
<path d="M 252.640 170.503 C 252.935 171.274 252.800 172.488 252.339 173.202 C 251.733 174.139 251.496 173.944 251.484 172.500 C 251.473 171.128 251.219 170.892 250.675 171.750 C 250.239 172.438 250.160 173.450 250.500 174.000 C 250.840 174.550 250.615 175.000 250.000 175.000 C 249.385 175.000 249.202 175.517 249.592 176.149 C 249.983 176.781 250.389 178.469 250.495 179.899 C 250.600 181.330 250.764 181.825 250.859 181.000 C 251.012 179.667 251.151 179.667 252.110 181.000 C 252.977 182.205 253.050 182.107 252.481 180.500 C 250.871 175.951 250.698 174.695 251.773 175.360 C 252.372 175.730 253.217 175.463 253.652 174.766 C 255.051 172.524 254.996 170.212 253.530 169.650 C 252.599 169.292 252.289 169.589 252.640 170.503 "/></g>
<g fill="#447694FE" stroke="#447694FE">
<path d="M 181.224 88.937 L 181.000 96.875 176.952 96.819 C 174.725 96.788 172.597 97.070 172.221 97.446 C 171.845 97.821 173.780 97.987 176.519 97.814 L 181.500 97.500 181.474 89.250 L 181.447 81.000 181.224 88.937 "/></g>
<g fill="#FEFEFEFE" stroke="#FEFEFEFE">
<path d="M 259.189 391.750 C 259.085 394.638 258.663 396.947 258.250 396.882 C 255.454 396.440 254.772 397.021 256.128 398.692 C 257.292 400.128 257.291 400.258 256.120 399.553 C 255.188 398.991 254.881 399.144 255.174 400.023 C 255.413 400.739 256.390 401.440 257.345 401.580 C 258.644 401.771 258.929 401.351 258.474 399.918 C 258.122 398.809 258.336 398.000 258.983 398.000 C 259.718 398.000 259.976 396.034 259.739 392.250 L 259.378 386.500 259.189 391.750 "/></g>
<g fill="#447694FE" stroke="#447694FE">
<path d="M 182.379 52.712 C 183.357 53.690 195.555 53.893 197.070 52.957 C 197.725 52.552 194.522 52.166 189.953 52.099 C 185.383 52.032 181.975 52.308 182.379 52.712 "/></g>
<g fill="#FEFEFEFE" stroke="#FEFEFEFE">
<path d="M 135.172 173.628 C 135.077 174.248 134.305 175.332 133.454 176.038 C 132.604 176.743 132.162 177.980 132.472 178.787 C 132.781 179.594 132.513 180.882 131.876 181.650 C 130.949 182.767 131.045 182.920 132.359 182.416 C 133.461 181.993 134.000 182.314 134.000 183.393 C 134.000 184.277 133.517 184.888 132.926 184.750 C 132.335 184.613 132.516 185.081 133.329 185.792 C 134.592 186.897 134.774 186.679 134.583 184.292 C 134.460 182.756 134.020 180.476 133.604 179.225 C 133.069 177.611 133.220 177.030 134.123 177.225 C 134.894 177.391 135.387 176.512 135.371 175.000 C 135.356 173.625 135.267 173.007 135.172 173.628 "/></g>
<g fill="#447694FE" stroke="#447694FE">
<path d="M 182.139 67.472 C 183.085 68.418 197.038 68.871 196.461 67.936 C 196.142 67.421 192.684 67.000 188.774 67.000 C 184.865 67.000 181.879 67.212 182.139 67.472 "/></g>
<g fill="#FEFEFEFE" stroke="#FEFEFEFE">
<path d="M 177.274 393.757 C 177.359 399.060 178.474 400.977 182.250 402.317 C 183.213 402.658 184.000 402.501 184.000 401.969 C 184.000 401.436 183.293 401.000 182.429 401.000 C 180.879 401.000 177.789 398.586 178.420 397.869 C 178.599 397.666 178.395 395.475 177.967 393.000 L 177.189 388.500 177.274 393.757 "/></g>
<g fill="#FEFEFEFE" stroke="#FEFEFEFE">
<path d="M 176.917 187.416 C 176.688 187.644 176.788 190.907 177.141 194.666 L 177.781 201.500 177.641 194.671 L 177.500 187.842 180.197 188.240 C 181.681 188.459 182.667 188.270 182.388 187.819 C 181.869 186.979 177.665 186.669 176.917 187.416 "/></g>
<g fill="#FEFEFEFE" stroke="#FEFEFEFE">
<path d="M 151.708 290.108 C 152.590 290.990 152.492 291.846 151.299 293.666 C 150.436 294.984 150.015 296.348 150.365 296.698 C 150.714 297.047 151.000 296.808 151.000 296.167 C 151.000 295.525 151.477 295.000 152.059 295.000 C 152.641 295.000 152.840 295.450 152.500 296.000 C 152.160 296.550 152.359 297.000 152.941 297.000 C 154.338 297.000 154.287 295.687 152.833 294.233 C 151.643 293.043 151.841 292.887 155.973 291.755 C 156.825 291.521 155.992 290.844 153.996 290.148 C 151.447 289.260 150.849 289.249 151.708 290.108 "/></g>
<g fill="#FEFEFEFE" stroke="#FEFEFEFE">
<path d="M 185.528 176.954 C 185.204 177.479 185.231 179.071 185.588 180.493 C 185.945 181.915 185.846 182.949 185.368 182.789 C 184.891 182.630 184.388 182.838 184.250 183.250 C 184.113 183.663 184.000 183.705 184.000 183.345 C 184.000 182.985 184.855 183.464 185.901 184.410 C 187.329 185.703 187.989 185.827 188.555 184.911 C 189.037 184.132 188.892 183.949 188.155 184.405 C 187.401 184.871 187.000 184.259 187.000 182.641 C 187.000 181.278 186.699 179.378 186.330 178.418 C 185.873 177.227 186.032 176.902 186.830 177.395 C 187.474 177.793 188.000 177.641 188.000 177.059 C 188.000 175.740 186.323 175.669 185.528 176.954 "/></g>
<g fill="#FEFEFEFE" stroke="#FEFEFEFE">
<path d="M 325.920 180.597 C 325.689 181.750 325.939 182.729 326.475 182.772 C 327.995 182.894 328.331 184.998 326.833 185.015 C 325.836 185.027 325.878 185.270 327.000 185.979 C 328.030 186.630 328.500 186.547 328.500 185.714 C 328.500 185.046 329.063 184.500 329.750 184.500 C 331.228 184.500 331.456 182.557 330.000 182.375 C 329.450 182.306 328.583 182.194 328.073 182.125 C 327.564 182.056 326.965 181.213 326.744 180.250 C 326.406 178.780 326.274 178.836 325.920 180.597 "/></g>
<g fill="#FEFEFEFE" stroke="#FEFEFEFE">
<path d="M 295.459 80.067 C 295.096 80.653 295.070 81.403 295.400 81.733 C 295.730 82.063 296.000 81.767 296.000 81.076 C 296.000 80.158 297.782 79.910 302.581 80.156 C 306.200 80.342 308.825 80.158 308.414 79.747 C 307.259 78.592 296.202 78.865 295.459 80.067 "/></g>
<g fill="#FEFEFEFE" stroke="#FEFEFEFE">
<path d="M 218.000 195.000 C 218.000 197.200 218.468 199.000 219.041 199.000 C 219.627 199.000 219.978 197.255 219.845 195.000 C 219.715 192.800 219.247 191.000 218.804 191.000 C 218.362 191.000 218.000 192.800 218.000 195.000 "/></g>
<g fill="#FEFEFEFE" stroke="#FEFEFEFE">
<path d="M 139.134 186.166 C 138.441 188.041 138.696 188.343 141.031 188.416 C 143.475 188.492 143.633 188.288 142.704 186.250 C 141.412 183.414 140.163 183.385 139.134 186.166 "/></g>
<g fill="#709AACFE" stroke="#709AACFE">
<path d="M 182.185 391.750 L 182.370 397.500 182.735 392.313 C 183.045 387.910 183.433 387.061 185.300 386.699 C 187.125 386.345 187.032 386.249 184.750 386.136 C 182.033 386.002 182.002 386.069 182.185 391.750 "/></g>
<g fill="#709AACFE" stroke="#709AACFE">
<path d="M 330.195 188.265 C 331.346 189.199 332.007 191.542 332.256 195.570 L 332.622 201.500 332.811 195.285 C 332.980 189.734 332.760 188.954 330.750 187.980 C 328.761 187.016 328.697 187.049 330.195 188.265 "/></g>
<g fill="#FEFEFEFE" stroke="#FEFEFEFE">
<path d="M 216.244 397.000 C 216.351 398.375 216.088 400.063 215.660 400.750 C 215.223 401.453 215.345 402.000 215.941 402.000 C 216.903 402.000 217.407 400.639 217.130 398.786 C 217.072 398.393 217.648 398.311 218.411 398.604 C 219.174 398.897 220.138 398.586 220.553 397.914 C 221.037 397.132 220.893 396.948 220.155 397.405 C 219.520 397.797 219.000 397.615 219.000 397.000 C 219.000 396.385 218.588 396.136 218.085 396.447 C 217.582 396.758 216.919 396.447 216.611 395.756 C 216.302 395.065 216.138 395.625 216.244 397.000 "/></g>
<g fill="#FEFEFEFE" stroke="#FEFEFEFE">
<path d="M 114.115 290.903 C 113.097 291.551 112.962 292.544 113.605 294.643 L 114.481 297.500 114.203 294.750 C 114.032 293.065 114.423 291.962 115.212 291.901 C 118.786 291.628 120.381 291.350 119.332 291.185 C 118.689 291.083 117.564 290.780 116.832 290.511 C 116.099 290.241 114.877 290.418 114.115 290.903 "/></g>
<g fill="#FEFEFEFE" stroke="#FEFEFEFE">
<path d="M 144.988 182.014 C 144.174 183.541 144.216 183.965 145.162 183.764 C 146.679 183.443 146.976 186.209 145.533 187.235 C 144.837 187.730 144.857 187.974 145.595 187.985 C 146.197 187.993 147.547 187.023 148.595 185.828 C 149.643 184.634 149.960 183.971 149.300 184.356 C 148.281 184.951 145.927 182.174 146.031 180.500 C 146.048 180.225 145.579 180.906 144.988 182.014 "/></g>
<g fill="#FEFEFEFE" stroke="#FEFEFEFE">
<path d="M 334.427 168.895 C 336.283 169.622 336.285 169.677 334.499 170.362 C 332.764 171.028 332.752 171.181 334.322 172.751 C 335.245 173.674 336.033 173.995 336.074 173.464 C 336.115 172.934 336.337 171.488 336.568 170.250 C 336.904 168.447 336.542 168.014 334.744 168.070 C 332.686 168.135 332.660 168.203 334.427 168.895 "/></g>
<g fill="#447694FE" stroke="#447694FE">
<path d="M 181.076 54.000 C 180.431 55.699 180.648 66.001 181.330 66.001 C 181.787 66.000 181.959 63.188 181.713 59.750 C 181.468 56.313 181.181 53.725 181.076 54.000 "/></g>
<g fill="#FEFEFEFE" stroke="#FEFEFEFE">
<path d="M 133.000 291.068 C 128.814 291.656 128.954 291.706 135.000 291.786 C 138.719 291.836 140.644 291.566 139.500 291.155 C 138.400 290.760 135.475 290.721 133.000 291.068 "/></g>
<g fill="#FEFEFEFE" stroke="#FEFEFEFE">
<path d="M 259.697 188.636 C 259.314 189.020 259.075 192.071 259.166 195.417 L 259.332 201.500 259.863 194.720 C 260.155 190.991 260.080 188.253 259.697 188.636 "/></g>
<g fill="#FEFEFEFE" stroke="#FEFEFEFE">
<path d="M 216.093 194.844 L 216.685 201.500 216.843 195.309 C 216.929 191.904 216.663 188.909 216.250 188.653 C 215.838 188.397 215.767 191.183 216.093 194.844 "/></g>
<g fill="#709AACFE" stroke="#709AACFE">
<path d="M 330.975 386.658 C 331.539 386.938 332.096 389.604 332.214 392.583 L 332.429 398.000 332.464 392.333 C 332.488 388.519 332.083 386.582 331.225 386.408 C 330.524 386.266 330.411 386.379 330.975 386.658 "/></g>
<g fill="#709AACFE" stroke="#709AACFE">
<path d="M 138.093 392.844 L 138.685 399.500 138.843 393.309 C 138.929 389.904 138.663 386.909 138.250 386.653 C 137.838 386.397 137.767 389.183 138.093 392.844 "/></g>
<g fill="#709AACFE" stroke="#709AACFE">
<path d="M 337.697 188.636 C 337.314 189.020 337.075 192.071 337.166 195.417 L 337.332 201.500 337.863 194.720 C 338.155 190.991 338.080 188.253 337.697 188.636 "/></g>
<g fill="#709AACFE" stroke="#709AACFE">
<path d="M 143.697 188.636 C 143.314 189.020 143.075 192.071 143.166 195.417 L 143.332 201.500 143.863 194.720 C 144.155 190.991 144.080 188.253 143.697 188.636 "/></g>
<g fill="#FEFEFEFE" stroke="#FEFEFEFE">
<path d="M 183.536 413.187 C 183.150 414.115 182.197 414.629 181.417 414.330 C 179.869 413.736 179.438 415.534 180.910 416.444 C 182.618 417.500 184.660 415.921 184.449 413.708 C 184.274 411.872 184.120 411.784 183.536 413.187 "/></g>
<g fill="#FEFEFEFE" stroke="#FEFEFEFE">
<path d="M 263.799 401.161 C 264.635 402.231 264.737 403.044 264.087 403.446 C 263.448 403.841 263.407 404.939 263.974 406.433 C 264.468 407.732 264.601 409.066 264.269 409.397 C 263.938 409.729 264.192 410.000 264.833 410.000 C 266.227 410.000 266.329 408.068 265.042 406.034 C 264.468 405.126 264.478 404.128 265.070 403.416 C 265.708 402.647 265.440 401.807 264.262 400.883 C 262.683 399.644 262.635 399.672 263.799 401.161 "/></g>
<g fill="#FEFEFEFE" stroke="#FEFEFEFE">
<path d="M 178.393 169.582 C 178.727 170.452 179.000 171.352 179.000 171.582 C 179.000 171.812 179.730 172.000 180.622 172.000 C 181.901 172.000 181.998 171.703 181.081 170.597 C 180.187 169.520 180.216 169.074 181.208 168.676 C 181.919 168.391 181.439 168.122 180.143 168.079 C 178.389 168.020 177.941 168.405 178.393 169.582 "/></g>
<g fill="#FEFEFEFE" stroke="#FEFEFEFE">
<path d="M 287.000 98.087 L 281.500 98.674 286.750 98.837 C 289.638 98.927 292.113 98.663 292.250 98.250 C 292.388 97.838 290.025 97.764 287.000 98.087 "/></g>
<g fill="#FEFEFEFE" stroke="#FEFEFEFE">
<path d="M 144.639 412.694 C 144.288 413.046 144.007 413.821 144.015 414.417 C 144.024 415.013 144.467 414.825 145.000 414.000 C 145.828 412.718 145.972 412.754 145.985 414.250 C 145.993 415.213 145.438 416.057 144.750 416.128 C 144.063 416.198 144.524 416.362 145.775 416.492 C 147.026 416.623 148.333 416.271 148.679 415.710 C 149.040 415.127 148.815 414.996 148.155 415.405 C 147.478 415.823 147.000 415.497 147.000 414.618 C 147.000 412.899 145.587 411.747 144.639 412.694 "/></g>
<g fill="#FEFEFEFE" stroke="#FEFEFEFE">
<path d="M 335.002 397.000 C 333.907 400.524 334.949 402.509 336.542 399.932 C 336.905 399.344 337.855 399.114 338.653 399.420 C 339.514 399.751 339.838 399.548 339.451 398.920 C 339.092 398.339 338.197 398.094 337.463 398.376 C 336.730 398.657 335.911 398.350 335.644 397.694 C 335.376 397.037 335.088 396.725 335.002 397.000 "/></g>
<g fill="#FEFEFEFE" stroke="#FEFEFEFE">
<path d="M 139.893 395.496 C 139.019 396.290 140.066 401.000 141.117 401.000 C 141.602 401.000 142.000 400.100 142.000 399.000 C 142.000 397.900 141.550 397.000 141.000 397.000 C 140.450 397.000 140.113 396.538 140.250 395.972 C 140.388 395.407 140.227 395.193 139.893 395.496 "/></g>
<g fill="#FEFEFEFE" stroke="#FEFEFEFE">
<path d="M 169.000 179.222 L 169.000 181.444 171.222 179.222 L 173.444 177.000 171.222 177.000 C 169.593 177.000 169.000 177.593 169.000 179.222 "/></g>
<g fill="#FEFEFEFE" stroke="#FEFEFEFE">
<path d="M 256.125 415.094 C 258.019 416.523 258.637 416.613 259.232 415.550 C 259.762 414.603 259.085 414.093 256.868 413.767 L 253.761 413.311 256.125 415.094 "/></g>
<g fill="#FEFEFEFE" stroke="#FEFEFEFE">
<path d="M 209.624 174.799 C 209.195 175.494 209.433 176.030 210.191 176.070 C 210.911 176.109 210.600 176.527 209.500 177.000 C 207.555 177.836 207.559 177.861 209.643 177.930 C 210.822 177.968 212.054 177.302 212.382 176.448 C 212.709 175.594 212.571 175.147 212.074 175.454 C 211.577 175.761 210.990 175.469 210.768 174.805 C 210.456 173.868 210.201 173.866 209.624 174.799 "/></g>
<g fill="#FEFEFEFE" stroke="#FEFEFEFE">
<path d="M 169.000 409.000 C 169.000 410.100 169.450 411.000 170.000 411.000 C 170.550 411.000 171.000 410.100 171.000 409.000 C 171.000 407.900 170.550 407.000 170.000 407.000 C 169.450 407.000 169.000 407.900 169.000 409.000 "/></g>
<g fill="#FEFEFEFE" stroke="#FEFEFEFE">
<path d="M 223.030 402.219 C 223.009 403.409 222.462 403.755 221.250 403.346 C 220.190 402.987 220.453 403.462 221.916 404.550 C 223.245 405.538 224.006 405.818 223.607 405.173 C 223.208 404.528 223.381 404.000 223.991 404.000 C 224.768 404.000 224.795 403.477 224.080 402.250 C 223.128 400.615 223.059 400.613 223.030 402.219 "/></g>
<g fill="#FEFEFEFE" stroke="#FEFEFEFE">
<path d="M 114.000 258.200 C 114.000 258.640 115.125 259.000 116.500 259.000 C 117.875 259.000 119.000 258.640 119.000 258.200 C 119.000 257.760 117.875 257.400 116.500 257.400 C 115.125 257.400 114.000 257.760 114.000 258.200 "/></g>
<g fill="#FEFEFEFE" stroke="#FEFEFEFE">
<path d="M 384.424 202.123 C 384.126 202.605 385.596 202.954 387.691 202.898 L 391.500 202.795 388.233 202.020 C 386.436 201.594 384.722 201.640 384.424 202.123 "/></g>
<g fill="#FEFEFEFE" stroke="#FEFEFEFE">
<path d="M 223.750 181.662 C 224.438 181.940 225.000 182.654 225.000 183.250 C 225.000 183.846 224.690 184.024 224.312 183.645 C 223.933 183.267 223.523 183.642 223.400 184.478 C 223.105 186.489 224.618 186.437 225.396 184.410 C 226.126 182.509 225.338 180.970 223.691 181.079 C 222.832 181.136 222.849 181.299 223.750 181.662 "/></g>
<g fill="#FEFEFEFE" stroke="#FEFEFEFE">
<path d="M 212.717 181.296 C 212.424 182.058 212.587 183.316 213.077 184.091 C 213.763 185.174 213.973 185.197 213.985 184.191 C 213.993 183.446 214.505 183.194 215.173 183.607 C 215.818 184.006 215.649 183.337 214.797 182.121 C 213.635 180.462 213.116 180.256 212.717 181.296 "/></g>
<g fill="#FEFEFEFE" stroke="#FEFEFEFE">
<path d="M 293.000 44.500 C 297.566 46.258 299.362 46.232 295.500 44.464 C 293.850 43.708 291.825 43.104 291.000 43.121 C 290.175 43.138 291.075 43.759 293.000 44.500 "/></g>
<g fill="#709AACFE" stroke="#709AACFE">
<path d="M 279.215 343.750 C 280.053 344.713 280.987 346.175 281.291 347.000 C 281.671 348.035 281.867 348.092 281.921 347.184 C 282.038 345.236 280.096 342.000 278.810 342.000 C 278.138 342.000 278.299 342.699 279.215 343.750 "/></g>
<g fill="#447694FE" stroke="#447694FE">
<path d="M 211.079 60.000 C 211.045 62.428 211.304 63.068 211.924 62.089 C 212.424 61.300 212.445 59.759 211.972 58.589 C 211.270 56.853 211.119 57.091 211.079 60.000 "/></g>
<g fill="#FEFEFEFE" stroke="#FEFEFEFE">
<path d="M 138.490 415.016 C 138.144 415.575 137.373 415.731 136.776 415.362 C 136.113 414.952 135.980 415.159 136.435 415.894 C 136.914 416.669 137.591 416.762 138.339 416.156 C 138.978 415.639 140.400 414.994 141.500 414.724 C 143.353 414.268 143.339 414.223 141.309 414.116 C 140.104 414.052 138.835 414.457 138.490 415.016 "/></g>
<g fill="#FEFEFEFE" stroke="#FEFEFEFE">
<path d="M 185.573 407.250 C 185.140 408.213 185.115 409.788 185.517 410.750 C 186.026 411.969 186.265 411.438 186.304 409.000 C 186.344 406.512 186.133 406.006 185.573 407.250 "/></g>
<g fill="#FEFEFEFE" stroke="#FEFEFEFE">
<path d="M 176.607 171.827 C 176.208 172.472 176.166 173.000 176.512 173.000 C 176.859 173.000 176.446 173.788 175.594 174.750 C 174.162 176.368 174.187 176.404 175.931 175.228 C 176.968 174.528 177.708 173.213 177.574 172.305 C 177.409 171.178 177.102 171.026 176.607 171.827 "/></g>
<g fill="#FEFEFEFE" stroke="#FEFEFEFE">
<path d="M 221.000 171.819 C 221.000 172.884 221.788 174.373 222.750 175.128 C 224.326 176.364 224.367 176.331 223.164 174.794 C 222.429 173.855 222.099 172.649 222.430 172.113 C 222.762 171.577 222.575 170.856 222.016 170.510 C 221.457 170.165 221.000 170.753 221.000 171.819 "/></g>
<g fill="#FEFEFEFE" stroke="#FEFEFEFE">
<path d="M 143.822 170.411 C 142.669 171.238 142.430 172.067 143.057 173.058 C 143.559 173.851 144.033 174.163 144.110 173.750 C 144.313 172.665 144.600 171.657 145.079 170.353 C 145.380 169.533 145.022 169.550 143.822 170.411 "/></g>
<g fill="#FEFEFEFE" stroke="#FEFEFEFE">
<path d="M 199.778 63.065 C 198.851 64.679 198.450 66.000 198.886 66.000 C 199.708 66.000 202.310 60.977 201.769 60.435 C 201.600 60.267 200.704 61.450 199.778 63.065 "/></g>
<g fill="#FEFEFEFE" stroke="#FEFEFEFE">
<path d="M 275.000 45.500 C 271.734 47.367 272.877 47.388 277.135 45.539 C 278.986 44.736 279.825 44.077 279.000 44.075 C 278.175 44.073 276.375 44.714 275.000 45.500 "/></g>
<g fill="#447694FE" stroke="#447694FE">
<path d="M 222.462 96.939 C 222.722 97.359 224.187 97.615 225.717 97.508 C 227.248 97.401 227.825 97.208 227.000 97.080 C 226.175 96.952 224.710 96.696 223.745 96.511 C 222.780 96.327 222.203 96.519 222.462 96.939 "/></g>
<g fill="#447694FE" stroke="#447694FE">
<path d="M 300.000 92.500 C 299.306 93.337 299.197 94.000 299.755 94.000 C 300.305 94.000 301.315 93.325 302.000 92.500 C 302.694 91.663 302.803 91.000 302.245 91.000 C 301.695 91.000 300.685 91.675 300.000 92.500 "/></g>
<g fill="#FEFEFEFE" stroke="#FEFEFEFE">
<path d="M 287.278 409.000 C 286.559 410.910 286.630 411.321 287.579 410.744 C 288.262 410.328 288.686 409.203 288.521 408.244 C 288.287 406.889 288.010 407.058 287.278 409.000 "/></g>
<g fill="#FEFEFEFE" stroke="#FEFEFEFE">
<path d="M 303.000 408.167 C 303.000 409.358 303.313 410.020 303.696 409.638 C 304.776 408.557 304.928 406.000 303.912 406.000 C 303.410 406.000 303.000 406.975 303.000 408.167 "/></g>
<g fill="#FEFEFEFE" stroke="#FEFEFEFE">
<path d="M 325.872 406.250 C 326.627 407.213 326.875 408.000 326.422 408.000 C 325.970 408.000 326.140 408.540 326.800 409.200 C 327.733 410.133 328.000 410.049 328.000 408.822 C 328.000 407.955 327.213 406.627 326.250 405.872 C 324.664 404.629 324.629 404.664 325.872 406.250 "/></g>
<g fill="#FEFEFEFE" stroke="#FEFEFEFE">
<path d="M 177.000 290.917 C 177.000 292.398 179.416 292.771 179.629 291.322 C 179.736 290.595 179.188 290.000 178.412 290.000 C 177.635 290.000 177.000 290.413 177.000 290.917 "/></g>
<g fill="#FEFEFEFE" stroke="#FEFEFEFE">
<path d="M 112.229 261.188 C 112.447 261.841 113.160 262.553 113.813 262.771 C 114.544 263.015 114.767 262.557 114.394 261.584 C 113.696 259.766 111.629 259.388 112.229 261.188 "/></g>
<g fill="#FEFEFEFE" stroke="#FEFEFEFE">
<path d="M 256.473 171.044 C 256.148 171.570 257.146 171.971 258.691 171.937 C 261.342 171.877 261.376 171.823 259.282 170.981 C 257.928 170.436 256.833 170.461 256.473 171.044 "/></g>
<g fill="#FEFEFEFE" stroke="#FEFEFEFE">
<path d="M 281.464 86.942 C 281.777 87.447 283.262 87.975 284.766 88.114 C 286.603 88.284 286.926 88.143 285.750 87.683 C 282.099 86.258 280.915 86.053 281.464 86.942 "/></g>
<g fill="#FEFEFEFE" stroke="#FEFEFEFE">
<path d="M 302.102 49.382 C 303.465 50.648 303.854 50.796 303.069 49.750 C 301.977 48.296 301.987 47.978 303.128 47.872 C 303.882 47.802 303.447 47.637 302.160 47.505 L 299.820 47.264 302.102 49.382 "/></g>
<g fill="#709AACFE" stroke="#709AACFE">
<path d="M 130.750 404.596 C 130.338 405.001 130.055 406.496 130.123 407.917 C 130.227 410.098 130.344 409.983 130.873 407.179 C 131.218 405.353 131.163 404.190 130.750 404.596 "/></g>
<g fill="#709AACFE" stroke="#709AACFE">
<path d="M 138.028 191.272 C 138.751 194.312 138.801 194.343 138.898 191.809 C 138.954 190.329 138.609 188.876 138.131 188.581 C 137.648 188.282 137.602 189.479 138.028 191.272 "/></g>
</svg>
