<?xml version="1.0" encoding="UTF-8" standalone="no"?>
<!-- Created with Inkscape (http://www.inkscape.org/) -->

<svg
   version="1.1"
   id="svg1"
   width="573"
   height="573"
   viewBox="0 0 573 573"
   sodipodi:docname="download1.svg"
   inkscape:version="1.4 (86a8ad7, 2024-10-11)"
   xmlns:inkscape="http://www.inkscape.org/namespaces/inkscape"
   xmlns:sodipodi="http://sodipodi.sourceforge.net/DTD/sodipodi-0.dtd"
   xmlns="http://www.w3.org/2000/svg"
   xmlns:svg="http://www.w3.org/2000/svg">
  <defs
     id="defs1">
    <filter
       inkscape:label="Silhouette"
       inkscape:menu="Color"
       inkscape:menu-tooltip="Adds a colorizable edges glow inside objects and pictures"
       style="color-interpolation-filters:sRGB;"
       id="filter11"
       x="-0.06893308"
       y="-0.12785231"
       width="1.1378662"
       height="1.2557046">
      <feColorMatrix
         type="saturate"
         values="1"
         result="result91"
         id="feColorMatrix8" />
      <feComposite
         in2="result91"
         result="result15"
         operator="arithmetic"
         k2="0.4"
         k1="0.3"
         k3="0.3"
         id="feComposite8" />
      <feGaussianBlur
         in="result15"
         result="result8"
         stdDeviation="5"
         id="feGaussianBlur8" />
      <feColorMatrix
         values="1 0 0 0 0 0 1 0 0 0 0 0 1 0 0 0 0 0 50 0 "
         id="feColorMatrix9" />
      <feComposite
         in2="SourceGraphic"
         operator="in"
         result="result13"
         id="feComposite9" />
      <feComposite
         in2="result13"
         k3="0.3"
         k1="0.3"
         k2="0.4"
         operator="arithmetic"
         in="result15"
         result="result6"
         id="feComposite10" />
      <feFlood
         flood-color="rgb(128,172,0)"
         flood-opacity="1"
         result="result10"
         id="feFlood10" />
      <feBlend
         in2="result10"
         result="result12"
         in="result6"
         mode="darken"
         id="feBlend10" />
      <feBlend
         in2="result6"
         result="result14"
         mode="screen"
         id="feBlend11" />
      <feComposite
         in2="SourceGraphic"
         in="result14"
         operator="in"
         id="feComposite11"
         result="fbSourceGraphic" />
      <feColorMatrix
         result="fbSourceGraphicAlpha"
         in="fbSourceGraphic"
         values="0 0 0 -1 0 0 0 0 -1 0 0 0 0 -1 0 0 0 0 1 0"
         id="feColorMatrix12" />
      <feFlood
         id="feFlood12"
         flood-opacity="0.635294"
         flood-color="rgb(104,54,238)"
         result="flood"
         in="fbSourceGraphic" />
      <feComposite
         id="feComposite12"
         in="flood"
         in2="fbSourceGraphic"
         operator="in"
         result="composite" />
      <feGaussianBlur
         id="feGaussianBlur12"
         stdDeviation="0.01"
         result="fbSourceGraphic" />
      <feColorMatrix
         result="fbSourceGraphicAlpha"
         in="fbSourceGraphic"
         values="0 0 0 -1 0 0 0 0 -1 0 0 0 0 -1 0 0 0 0 1 0"
         id="feColorMatrix13" />
      <feFlood
         id="feFlood13"
         flood-opacity="0.635294"
         flood-color="rgb(104,54,238)"
         result="flood"
         in="fbSourceGraphic" />
      <feComposite
         id="feComposite13"
         in="flood"
         in2="fbSourceGraphic"
         operator="in"
         result="composite" />
      <feGaussianBlur
         id="feGaussianBlur13"
         stdDeviation="0.01" />
    </filter>
  </defs>
  <sodipodi:namedview
     id="namedview1"
     pagecolor="#ffffff"
     bordercolor="#000000"
     borderopacity="0.25"
     inkscape:showpageshadow="2"
     inkscape:pageopacity="0.0"
     inkscape:pagecheckerboard="0"
     inkscape:deskcolor="#d1d1d1"
     showgrid="false"
     inkscape:zoom="1.4537522"
     inkscape:cx="286.84394"
     inkscape:cy="286.5"
     inkscape:window-width="1920"
     inkscape:window-height="1051"
     inkscape:window-x="-9"
     inkscape:window-y="-9"
     inkscape:window-maximized="1"
     inkscape:current-layer="g1" />
  <g
     inkscape:groupmode="layer"
     inkscape:label="Image"
     id="g1">
    <path
       style="fill:#000080;filter:url(#filter11)"
       d="m 211.4277,327.22957 c -5.58715,-2.46129 -10.916,-15.37965 -6.34415,-15.37965 0.80684,0 5.06176,-4.75377 7.38408,-8.24979 3.65732,-5.50574 6.50477,-10.3916 6.50477,-11.16136 0,-0.39518 0.16961,-0.7185 0.37691,-0.7185 0.2073,0 0.59234,-0.63691 0.85564,-1.41537 0.2633,-0.77845 0.80024,-1.98151 1.1932,-2.67346 2.1939,-3.86319 3.61254,-6.63042 7.67629,-14.97349 2.46939,-5.06976 4.89388,-10.00783 5.38775,-10.97347 0.49388,-0.96564 3.00715,-5.99632 5.58506,-11.17928 8.17572,-16.43761 5.84971,-14.70524 19.92583,-14.8404 11.26216,-0.10814 11.45442,-0.0264 9.33939,3.97184 -4.67449,8.83657 -6.50658,12.39394 -10.46327,20.31653 -2.41903,4.84369 -4.55293,9.08979 -4.74199,9.43577 -0.18906,0.34598 -2.46408,4.8179 -5.05561,9.93759 -2.59152,5.1197 -6.28178,12.33807 -8.20059,16.04082 -1.9188,3.70275 -5.58112,10.83683 -8.13847,15.85352 -7.62813,14.96388 -13.54858,19.41675 -21.28484,16.0087 z m 27.74878,-0.27527 c -5.29722,-0.39949 -6.8857,-1.88561 -4.71429,-4.4105 0.37041,-0.43071 0.67347,-1.0504 0.67347,-1.3771 0,-0.3267 0.4551,-1.4951 1.01134,-2.59645 0.55623,-1.10134 1.21286,-2.45 1.45918,-2.99701 0.66827,-1.48407 3.91004,-8.05061 4.93765,-10.00172 0.49387,-0.93773 2.06183,-4.08403 3.48435,-6.99179 2.96138,-6.05334 4.58693,-9.24312 5.46537,-10.7246 0.33735,-0.56893 1.64568,-3.11659 2.9074,-5.66147 1.26172,-2.54488 2.64574,-5.29465 3.0756,-6.11061 2.50434,-4.75372 7.66886,-15.23062 8.46989,-17.18226 3.44309,-8.38871 11.72057,-6.22381 16.46324,4.30583 1.98246,4.40143 1.69989,7.80245 -0.99728,12.00335 -0.38792,0.6042 -1.25371,2.23083 -1.92398,3.61474 -0.67027,1.38392 -1.7815,3.56812 -2.46939,4.85379 -4.763,8.90202 -11.80173,22.92902 -11.80173,23.51885 0,0.17589 -0.98459,2.02467 -2.18797,4.1084 -1.20339,2.08373 -2.46057,4.54474 -2.79375,5.46891 -3.34531,9.2793 -7.34718,11.21374 -21.0591,10.17964 z m 30.30612,0.27224 c -0.24693,-0.0931 -1.00459,-0.34102 -1.68367,-0.55087 -0.76802,-0.23732 -1.2338,-0.79308 -1.23233,-1.47039 0.002,-1.14307 0.26471,-1.76353 3.68908,-8.72871 6.52313,-13.26806 4.70837,-12.17527 20.21888,-12.17527 7.26293,0 13.32155,-0.16284 13.4636,-0.36186 0.362,-0.50718 -2.56561,-8.64442 -3.50168,-9.73286 -0.42374,-0.49272 -1.12196,-2.03216 -1.55159,-3.42098 -0.74686,-2.41426 -7.1416,-15.05158 -8.28065,-16.36425 -0.30022,-0.34598 -1.11788,-1.90288 -1.81702,-3.45978 -5.92571,-13.19579 -10.83479,-19.5006 -15.18363,-19.5006 -2.26891,0 -2.36943,-1.67936 -0.3727,-6.22681 6.52345,-14.85686 19.22772,-14.87756 26.33209,-0.0429 0.74012,1.54545 1.44915,2.95145 1.57563,3.12444 0.12647,0.17299 0.81353,1.58836 1.5268,3.14526 0.71327,1.5569 3.03484,6.19164 5.15906,10.29943 2.12422,4.10778 4.93423,9.62771 6.24446,12.2665 3.30037,6.6469 7.40583,15.05496 7.94429,16.27004 0.24694,0.55724 3.025,6.20117 6.17347,12.54207 3.14847,6.34089 5.72449,11.72256 5.72449,11.95925 0,0.2367 0.43218,1.07491 0.96041,1.86269 2.44925,3.65273 3.85308,8.21524 2.92682,9.51228 -0.68826,0.96378 -65.8878,1.96904 -68.31581,1.05331 z m -68.69388,-18.78428 c -1.36401,-0.82199 -5.16326,-6.13404 -5.16326,-7.21919 0,-0.32458 -1.86888,-4.05551 -4.15306,-8.29097 -11.34722,-21.04063 -28.15458,-54.13359 -28.16494,-55.45554 -0.0137,-1.74222 1.78206,-2.03358 12.60598,-2.04536 11.96742,-0.013 10.3017,-1.12983 15.83691,10.61803 9.37423,19.89575 12.18224,25.91892 12.66648,27.16961 0.27976,0.72252 1.39625,2.84557 2.48109,4.71788 1.08484,1.87231 2.67534,4.9611 3.53446,6.86398 0.85911,1.90288 1.82351,3.84045 2.14312,4.3057 4.33715,6.31362 -5.80014,22.94355 -11.78678,19.33586 z"
       id="path1"
       transform="matrix(1.7955344,0,0,3.0171826,-164.35605,-542.80258)"
       inkscape:export-filename="path1.png"
       inkscape:export-xdpi="107.53727"
       inkscape:export-ydpi="107.53727" />
  </g>
</svg>
